<svg width="38" height="38" viewBox="0 0 38 38" fill="none" xmlns="http://www.w3.org/2000/svg">
<path d="M19 28.5C19.5383 28.5 19.9899 28.3176 20.3547 27.9528C20.7195 27.588 20.9013 27.1371 20.9 26.6V19C20.9 18.4617 20.7176 18.0101 20.3528 17.6453C19.988 17.2805 19.5371 17.0987 19 17.1C18.4617 17.1 18.0101 17.2824 17.6453 17.6472C17.2805 18.012 17.0987 18.4629 17.1 19V26.6C17.1 27.1383 17.2824 27.5899 17.6472 27.9547C18.012 28.3195 18.4629 28.5013 19 28.5ZM19 13.3C19.5383 13.3 19.9899 13.1176 20.3547 12.7528C20.7195 12.388 20.9013 11.9371 20.9 11.4C20.9 10.8617 20.7176 10.4101 20.3528 10.0453C19.988 9.6805 19.5371 9.49873 19 9.5C18.4617 9.5 18.0101 9.6824 17.6453 10.0472C17.2805 10.412 17.0987 10.8629 17.1 11.4C17.1 11.9383 17.2824 12.3899 17.6472 12.7547C18.012 13.1195 18.4629 13.3013 19 13.3ZM19 38C16.3717 38 13.9017 37.5009 11.59 36.5028C9.27833 35.5047 7.2675 34.1512 5.5575 32.4425C3.8475 30.7325 2.49407 28.7217 1.4972 26.41C0.500333 24.0983 0.00126667 21.6283 0 19C0 16.3717 0.499067 13.9017 1.4972 11.59C2.49533 9.27833 3.84877 7.2675 5.5575 5.5575C7.2675 3.8475 9.27833 2.49407 11.59 1.4972C13.9017 0.500333 16.3717 0.00126667 19 0C21.6283 0 24.0983 0.499067 26.41 1.4972C28.7217 2.49533 30.7325 3.84877 32.4425 5.5575C34.1525 7.2675 35.5066 9.27833 36.5047 11.59C37.5028 13.9017 38.0013 16.3717 38 19C38 21.6283 37.5009 24.0983 36.5028 26.41C35.5047 28.7217 34.1512 30.7325 32.4425 32.4425C30.7325 34.1525 28.7217 35.5066 26.41 36.5047C24.0983 37.5028 21.6283 38.0013 19 38Z" fill="#1B203D"/>
</svg>
