<svg width="32" height="32" viewBox="0 0 32 32" fill="none" xmlns="http://www.w3.org/2000/svg">
<path d="M13.3866 27.2H9.49329C8.25329 27.2 7.06663 26.6667 6.18663 25.8134C5.33329 24.9334 4.79996 23.7467 4.79996 22.5067V9.49335C4.79996 8.25335 5.33329 7.06669 6.18663 6.18669C7.06663 5.33335 8.25329 4.82669 9.49329 4.82669H13.3866V27.2ZM9.49329 2.66669C7.68275 2.66669 5.94636 3.38592 4.66611 4.66617C3.38586 5.94642 2.66663 7.68281 2.66663 9.49335V22.5067C2.66663 26.28 5.71996 29.3334 9.49329 29.3334H15.5333V2.66669H9.49329ZM6.81329 10.6667C6.81329 12.0534 7.93329 13.1734 9.33329 13.1734C10.7066 13.1734 11.8266 12.0534 11.8266 10.6667C11.8266 9.28002 10.7066 8.16002 9.33329 8.16002C7.93329 8.16002 6.81329 9.28002 6.81329 10.6667ZM23.48 14.6667C24.96 14.6667 26.16 15.8534 26.16 17.3334C26.16 18.8267 24.96 20 23.48 20C22 20 20.7733 18.8267 20.7733 17.3334C20.7733 15.8534 22 14.6667 23.48 14.6667ZM22.5066 29.3334C24.3172 29.3334 26.0536 28.6141 27.3338 27.3339C28.6141 26.0536 29.3333 24.3172 29.3333 22.5067V9.49335C29.3333 5.72002 26.28 2.66669 22.5066 2.66669H18.2V29.3334H22.5066Z" fill="#779b54"/>
</svg>
