<svg width="139" height="22" viewBox="0 0 139 22" fill="none" xmlns="http://www.w3.org/2000/svg">
<path d="M10.2914 0C12.1853 0.36608 14.9576 1.22496 16.4672 1.73184C20.2412 3.06944 21.5313 4.73088 21.5313 8.47616C21.5313 12.137 19.3355 13.5168 16.5358 12.137V5.32224C16.5358 4.54784 16.3986 3.8016 15.6575 3.5904C15.0948 3.40736 14.7654 3.9424 14.7654 4.73088V21.7677L10.2914 20.3034V0ZM15.6026 18.7968L22.8076 16.1638C23.631 15.8682 23.7545 15.4458 23.0958 15.2205C22.4233 14.9952 21.2293 15.0656 20.4059 15.3613L15.6026 17.0931V14.3334L15.8908 14.2349C15.8908 14.2349 17.2769 13.6998 19.2119 13.5168C21.1744 13.2915 23.5624 13.545 25.4288 14.263C27.5423 14.953 27.7893 15.9667 27.2541 16.6566C26.7051 17.3606 25.3877 17.8534 25.3877 17.8534L15.6026 21.4438V18.7968ZM2.05715 18.5152C-0.0974859 17.9238 -0.468029 16.5862 0.520086 15.8118C1.43958 15.1078 2.99037 14.615 2.99037 14.615L9.41312 12.2918V14.9389L4.80192 16.6426C3.97849 16.9382 3.85498 17.3606 4.51372 17.5859C5.17246 17.8112 6.38016 17.7549 7.18986 17.4451L9.41312 16.6285V19.008L8.97396 19.0925C6.7507 19.4586 4.3902 19.3318 2.05715 18.5152Z" fill="#1B203D"/>
<path d="M30.2561 18V4.66859H34.7606C35.8065 4.66859 36.6614 4.85737 37.3254 5.23492C37.9937 5.60813 38.4884 6.1137 38.8095 6.75163C39.1307 7.38955 39.2912 8.10126 39.2912 8.88673C39.2912 9.67221 39.1307 10.3861 38.8095 11.0283C38.4927 11.6706 38.0023 12.1827 37.3384 12.5646C36.6744 12.9421 35.8238 13.1309 34.7867 13.1309H31.558V11.6988H34.7346C35.4506 11.6988 36.0256 11.5751 36.4596 11.3278C36.8936 11.0804 37.2082 10.7463 37.4035 10.3253C37.6031 9.90004 37.7029 9.42051 37.7029 8.88673C37.7029 8.35296 37.6031 7.87559 37.4035 7.45465C37.2082 7.0337 36.8914 6.70389 36.4531 6.46521C36.0148 6.22219 35.4333 6.10068 34.7086 6.10068H31.8704V18H30.2561ZM43.2197 4.66859V18H41.6834V4.66859H43.2197ZM48.9757 18.2343C48.3421 18.2343 47.7671 18.115 47.2507 17.8763C46.7343 17.6333 46.3242 17.284 46.0204 16.8283C45.7166 16.3683 45.5647 15.8128 45.5647 15.1619C45.5647 14.589 45.6776 14.1247 45.9032 13.7688C46.1289 13.4086 46.4305 13.1266 46.808 12.9226C47.1856 12.7186 47.6022 12.5668 48.0578 12.4669C48.5179 12.3628 48.98 12.2803 49.4444 12.2196C50.0519 12.1415 50.5445 12.0829 50.922 12.0438C51.3039 12.0004 51.5816 11.9288 51.7552 11.829C51.9332 11.7292 52.0221 11.5556 52.0221 11.3083V11.2562C52.0221 10.6139 51.8464 10.1149 51.4949 9.759C51.1477 9.40315 50.6204 9.22522 49.913 9.22522C49.1796 9.22522 48.6046 9.38579 48.188 9.70693C47.7714 10.0281 47.4785 10.3709 47.3093 10.7354L45.8511 10.2147C46.1115 9.60711 46.4587 9.13409 46.8927 8.7956C47.331 8.45277 47.8083 8.21409 48.3247 8.07956C48.8455 7.94069 49.3576 7.87126 49.861 7.87126C50.1821 7.87126 50.551 7.91031 50.9676 7.98842C51.3885 8.0622 51.7943 8.21626 52.1849 8.4506C52.5798 8.68494 52.9074 9.03862 53.1678 9.51164C53.4282 9.98466 53.5584 10.6183 53.5584 11.4124V18H52.0221V16.646H51.944C51.8399 16.863 51.6663 17.0952 51.4232 17.3425C51.1802 17.5899 50.8569 17.8004 50.4533 17.974C50.0497 18.1475 49.5572 18.2343 48.9757 18.2343ZM49.21 16.8543C49.8176 16.8543 50.3297 16.735 50.7463 16.4963C51.1672 16.2576 51.484 15.9495 51.6966 15.572C51.9136 15.1944 52.0221 14.7973 52.0221 14.3807V12.9747C51.957 13.0528 51.8138 13.1244 51.5925 13.1895C51.3755 13.2502 51.1238 13.3045 50.8374 13.3522C50.5553 13.3956 50.2797 13.4347 50.0107 13.4694C49.746 13.4998 49.5312 13.5258 49.3663 13.5475C48.967 13.5996 48.5938 13.6842 48.2466 13.8014C47.9038 13.9142 47.6261 14.0856 47.4134 14.3156C47.2051 14.5413 47.101 14.8494 47.101 15.24C47.101 15.7738 47.2984 16.1773 47.6933 16.4507C48.0926 16.7198 48.5981 16.8543 49.21 16.8543ZM56.9937 21.7494C56.7333 21.7494 56.5012 21.7277 56.2972 21.6844C56.0932 21.6453 55.9522 21.6062 55.8741 21.5672L56.2647 20.2132C56.6379 20.3087 56.9677 20.3434 57.2541 20.3174C57.5405 20.2913 57.7944 20.1633 58.0157 19.9333C58.2414 19.7076 58.4475 19.3409 58.6341 18.8332L58.9205 18.0521L55.2231 8.00144H56.8896L59.6496 15.969H59.7537L62.5138 8.00144H64.1802L59.936 19.4581C59.7451 19.9745 59.5086 20.402 59.2265 20.7405C58.9444 21.0833 58.6168 21.3372 58.2435 21.5021C57.8747 21.667 57.4581 21.7494 56.9937 21.7494ZM73.2902 10.2407L71.9102 10.6313C71.8234 10.4013 71.6954 10.1778 71.5261 9.9608C71.3612 9.73947 71.1356 9.55721 70.8491 9.414C70.5627 9.27079 70.196 9.19919 69.749 9.19919C69.1371 9.19919 68.6272 9.34023 68.2193 9.6223C67.8157 9.90004 67.6139 10.2537 67.6139 10.6833C67.6139 11.0652 67.7528 11.3668 68.0305 11.5882C68.3083 11.8095 68.7422 11.9939 69.3324 12.1415L70.8166 12.506C71.7106 12.723 72.3767 13.055 72.815 13.5019C73.2533 13.9446 73.4725 14.5153 73.4725 15.2139C73.4725 15.7868 73.3075 16.2989 72.9777 16.7502C72.6523 17.2015 72.1966 17.5573 71.6107 17.8177C71.0249 18.0781 70.3436 18.2083 69.5668 18.2083C68.547 18.2083 67.7029 17.987 67.0346 17.5443C66.3663 17.1017 65.9432 16.4551 65.7652 15.6045L67.2234 15.24C67.3622 15.7781 67.6248 16.1817 68.011 16.4507C68.4016 16.7198 68.9115 16.8543 69.5407 16.8543C70.2568 16.8543 70.8253 16.7024 71.2462 16.3987C71.6715 16.0905 71.8841 15.7217 71.8841 15.2921C71.8841 14.9449 71.7626 14.6541 71.5196 14.4198C71.2766 14.1811 70.9034 14.0032 70.4 13.886L68.7336 13.4954C67.8179 13.2785 67.1452 12.9421 66.7156 12.4865C66.2903 12.0265 66.0777 11.4515 66.0777 10.7615C66.0777 10.1973 66.2361 9.69825 66.5529 9.26428C66.874 8.83032 67.3102 8.48965 67.8613 8.24229C68.4168 7.99493 69.046 7.87126 69.749 7.87126C70.7385 7.87126 71.5153 8.08824 72.0794 8.5222C72.6479 8.95617 73.0515 9.529 73.2902 10.2407ZM80.1333 8.00144V9.30334H74.9517V8.00144H80.1333ZM76.4619 5.60596H77.9982V15.1358C77.9982 15.5698 78.0611 15.8953 78.1869 16.1122C78.3171 16.3249 78.482 16.4681 78.6817 16.5419C78.8856 16.6113 79.1004 16.646 79.3261 16.646C79.4953 16.646 79.6342 16.6373 79.7427 16.62C79.8512 16.5983 79.938 16.5809 80.0031 16.5679L80.3155 17.9479C80.2114 17.987 80.066 18.026 79.8794 18.0651C79.6928 18.1085 79.4563 18.1302 79.1699 18.1302C78.7359 18.1302 78.3106 18.0369 77.894 17.8503C77.4817 17.6637 77.1389 17.3794 76.8655 16.9975C76.5965 16.6156 76.4619 16.1339 76.4619 15.5524V5.60596ZM85.3864 18.2343C84.7528 18.2343 84.1778 18.115 83.6614 17.8763C83.145 17.6333 82.7349 17.284 82.4311 16.8283C82.1273 16.3683 81.9754 15.8128 81.9754 15.1619C81.9754 14.589 82.0883 14.1247 82.3139 13.7688C82.5396 13.4086 82.8412 13.1266 83.2188 12.9226C83.5963 12.7186 84.0129 12.5668 84.4686 12.4669C84.9286 12.3628 85.3908 12.2803 85.8551 12.2196C86.4626 12.1415 86.9552 12.0829 87.3327 12.0438C87.7146 12.0004 87.9924 11.9288 88.166 11.829C88.3439 11.7292 88.4328 11.5556 88.4328 11.3083V11.2562C88.4328 10.6139 88.2571 10.1149 87.9056 9.759C87.5584 9.40315 87.0311 9.22522 86.3238 9.22522C85.5904 9.22522 85.0154 9.38579 84.5988 9.70693C84.1822 10.0281 83.8892 10.3709 83.72 10.7354L82.2619 10.2147C82.5222 9.60711 82.8694 9.13409 83.3034 8.7956C83.7417 8.45277 84.219 8.21409 84.7355 8.07956C85.2562 7.94069 85.7683 7.87126 86.2717 7.87126C86.5928 7.87126 86.9617 7.91031 87.3783 7.98842C87.7993 8.0622 88.205 8.21626 88.5956 8.4506C88.9905 8.68494 89.3181 9.03862 89.5785 9.51164C89.8389 9.98466 89.9691 10.6183 89.9691 11.4124V18H88.4328V16.646H88.3547C88.2506 16.863 88.077 17.0952 87.834 17.3425C87.591 17.5899 87.2677 17.8004 86.8641 17.974C86.4605 18.1475 85.9679 18.2343 85.3864 18.2343ZM85.6208 16.8543C86.2283 16.8543 86.7404 16.735 87.157 16.4963C87.5779 16.2576 87.8947 15.9495 88.1074 15.572C88.3244 15.1944 88.4328 14.7973 88.4328 14.3807V12.9747C88.3678 13.0528 88.2245 13.1244 88.0032 13.1895C87.7862 13.2502 87.5345 13.3045 87.2481 13.3522C86.966 13.3956 86.6905 13.4347 86.4214 13.4694C86.1567 13.4998 85.9419 13.5258 85.777 13.5475C85.3777 13.5996 85.0045 13.6842 84.6574 13.8014C84.3145 13.9142 84.0368 14.0856 83.8241 14.3156C83.6158 14.5413 83.5117 14.8494 83.5117 15.24C83.5117 15.7738 83.7091 16.1773 84.104 16.4507C84.5033 16.7198 85.0089 16.8543 85.6208 16.8543ZM97.1214 8.00144V9.30334H91.9398V8.00144H97.1214ZM93.45 5.60596H94.9863V15.1358C94.9863 15.5698 95.0492 15.8953 95.175 16.1122C95.3052 16.3249 95.4701 16.4681 95.6697 16.5419C95.8737 16.6113 96.0885 16.646 96.3142 16.646C96.4834 16.646 96.6223 16.6373 96.7308 16.62C96.8393 16.5983 96.9261 16.5809 96.9912 16.5679L97.3036 17.9479C97.1995 17.987 97.0541 18.026 96.8675 18.0651C96.6809 18.1085 96.4444 18.1302 96.158 18.1302C95.724 18.1302 95.2987 18.0369 94.8821 17.8503C94.4698 17.6637 94.127 17.3794 93.8536 16.9975C93.5845 16.6156 93.45 16.1339 93.45 15.5524V5.60596ZM99.4322 18V8.00144H100.968V18H99.4322ZM100.213 6.33502C99.9139 6.33502 99.6557 6.23304 99.4387 6.02907C99.2261 5.82511 99.1198 5.57992 99.1198 5.2935C99.1198 5.00709 99.2261 4.7619 99.4387 4.55793C99.6557 4.35397 99.9139 4.25199 100.213 4.25199C100.513 4.25199 100.769 4.35397 100.981 4.55793C101.198 4.7619 101.307 5.00709 101.307 5.2935C101.307 5.57992 101.198 5.82511 100.981 6.02907C100.769 6.23304 100.513 6.33502 100.213 6.33502ZM107.844 18.2083C106.941 18.2083 106.149 17.9935 105.468 17.5639C104.791 17.1342 104.262 16.5332 103.88 15.7607C103.502 14.9883 103.313 14.0856 103.313 13.0528C103.313 12.0113 103.502 11.1021 103.88 10.3253C104.262 9.54853 104.791 8.94532 105.468 8.51569C106.149 8.08607 106.941 7.87126 107.844 7.87126C108.747 7.87126 109.537 8.08607 110.214 8.51569C110.895 8.94532 111.424 9.54853 111.802 10.3253C112.184 11.1021 112.375 12.0113 112.375 13.0528C112.375 14.0856 112.184 14.9883 111.802 15.7607C111.424 16.5332 110.895 17.1342 110.214 17.5639C109.537 17.9935 108.747 18.2083 107.844 18.2083ZM107.844 16.8283C108.53 16.8283 109.094 16.6525 109.537 16.301C109.979 15.9495 110.307 15.4873 110.519 14.9145C110.732 14.3417 110.838 13.7211 110.838 13.0528C110.838 12.3845 110.732 11.7617 110.519 11.1846C110.307 10.6074 109.979 10.1409 109.537 9.78504C109.094 9.42919 108.53 9.25126 107.844 9.25126C107.158 9.25126 106.594 9.42919 106.152 9.78504C105.709 10.1409 105.381 10.6074 105.169 11.1846C104.956 11.7617 104.85 12.3845 104.85 13.0528C104.85 13.7211 104.956 14.3417 105.169 14.9145C105.381 15.4873 105.709 15.9495 106.152 16.301C106.594 16.6525 107.158 16.8283 107.844 16.8283ZM116.256 11.9852V18H114.72V8.00144H116.204V9.56372H116.334C116.568 9.05598 116.924 8.64805 117.402 8.33994C117.879 8.02748 118.495 7.87126 119.25 7.87126C119.927 7.87126 120.52 8.01012 121.027 8.28786C121.535 8.56126 121.93 8.97787 122.212 9.53768C122.494 10.0932 122.635 10.7962 122.635 11.6467V18H121.099V11.7509C121.099 10.9654 120.895 10.3535 120.487 9.91523C120.079 9.47258 119.519 9.25126 118.808 9.25126C118.317 9.25126 117.879 9.35758 117.493 9.57023C117.111 9.78287 116.809 10.0932 116.588 10.5011C116.367 10.909 116.256 11.4037 116.256 11.9852Z" fill="black"/>
<path d="M128.315 10.311L133.47 15.4665M137.816 10.311L132.66 15.4665" stroke="#1B203D" stroke-width="1.14567"/>
</svg>
