<svg width="23" height="23" viewBox="0 0 23 23" fill="none" xmlns="http://www.w3.org/2000/svg">
<path d="M20.6866 22.6401L13.4008 15.3115C12.7503 15.835 12.0021 16.2494 11.1565 16.5548C10.3108 16.8601 9.4109 17.0128 8.4568 17.0128C6.09323 17.0128 4.09309 16.1892 2.45638 14.542C0.819659 12.8948 0.000867364 10.883 0 8.5064C0 6.12897 0.818792 4.1171 2.45638 2.47078C4.09396 0.824466 6.0941 0.000872451 8.4568 0C10.8204 0 12.8205 0.823594 14.4572 2.47078C16.0939 4.11797 16.9127 6.12984 16.9136 8.5064C16.9136 9.4661 16.7618 10.3713 16.4582 11.2219C16.1547 12.0725 15.7427 12.825 15.2222 13.4794L22.5406 20.8407C22.7791 21.0806 22.8984 21.3751 22.8984 21.724C22.8984 22.073 22.7683 22.3784 22.5081 22.6401C22.2696 22.88 21.966 23 21.5974 23C21.2287 23 20.9252 22.88 20.6866 22.6401ZM8.4568 14.3954C10.0831 14.3954 11.4657 13.8227 12.6045 12.6772C13.7434 11.5316 14.3124 10.1414 14.3115 8.5064C14.3115 6.87055 13.7421 5.47987 12.6032 4.33434C11.4644 3.18881 10.0822 2.61648 8.4568 2.61735C6.83049 2.61735 5.44791 3.19012 4.30906 4.33565C3.17022 5.48118 2.60122 6.87143 2.60209 8.5064C2.60209 10.1422 3.17152 11.5329 4.31037 12.6785C5.44921 13.824 6.83136 14.3963 8.4568 14.3954Z" fill="#1B203D"/>
</svg>
