<svg width="28" height="27" viewBox="0 0 28 27" fill="none" xmlns="http://www.w3.org/2000/svg">
<path d="M8.40777 27C7.63706 27 6.97705 26.7354 6.42774 26.2062C5.87843 25.677 5.60424 25.0416 5.60518 24.3C5.60518 23.5575 5.87983 22.9216 6.42914 22.3924C6.97845 21.8632 7.63799 21.5991 8.40777 21.6C9.17848 21.6 9.83849 21.8646 10.3878 22.3938C10.9371 22.923 11.2113 23.5584 11.2104 24.3C11.2104 25.0425 10.9357 25.6783 10.3864 26.2075C9.83709 26.7367 9.17755 27.0009 8.40777 27ZM22.4207 27C21.65 27 20.99 26.7354 20.4407 26.2062C19.8914 25.677 19.6172 25.0416 19.6181 24.3C19.6181 23.5575 19.8928 22.9216 20.4421 22.3924C20.9914 21.8632 21.6509 21.5991 22.4207 21.6C23.1914 21.6 23.8514 21.8646 24.4007 22.3938C24.9501 22.923 25.2242 23.5584 25.2233 24.3C25.2233 25.0425 24.9487 25.6783 24.3993 26.2075C23.85 26.7367 23.1905 27.0009 22.4207 27ZM5.88544 2.7H26.5545C27.0917 2.7 27.5004 2.93085 27.7807 3.39255C28.0609 3.85425 28.0726 4.3209 27.8157 4.7925L22.8411 13.4325C22.5842 13.8825 22.2395 14.2312 21.8069 14.4787C21.3744 14.7262 20.9017 14.85 20.3888 14.85H9.94919L8.40777 17.55H25.2233V20.25H8.40777C7.3568 20.25 6.56273 19.8054 6.02557 18.9162C5.4884 18.027 5.46505 17.1441 5.9555 16.2675L7.84725 12.96L2.80259 2.7H0V0H4.55421L5.88544 2.7Z" fill="#1B203D"/>
</svg>
