<svg width="136" height="14" viewBox="0 0 136 14" fill="none" xmlns="http://www.w3.org/2000/svg">
<path d="M10.4153 4.09713L7.30488 3.81539L6.09029 0.830251C5.87179 0.286889 5.12633 0.286889 4.90783 0.830251L3.69324 3.8221L0.589275 4.09713C0.0237504 4.14409 -0.207601 4.88199 0.222969 5.27106L2.58147 7.40426L1.87456 10.5705C1.74603 11.1474 2.34369 11.6036 2.8321 11.295L5.49906 9.61796L8.16602 11.3017C8.65443 11.6103 9.25209 11.1541 9.12356 10.5772L8.41665 7.40426L10.7751 5.27106C11.2057 4.88199 10.9808 4.14409 10.4153 4.09713ZM5.49906 8.36353L3.08273 9.88629L3.72537 7.01519L1.5918 5.08323L4.40657 4.82832L5.49906 2.12493L6.59798 4.83503L9.41275 5.08994L7.27918 7.0219L7.92182 9.89299L5.49906 8.36353Z" fill="#1B203D"/>
<path d="M23.4153 4.09713L20.3049 3.81539L19.0903 0.830251C18.8718 0.286889 18.1263 0.286889 17.9078 0.830251L16.6932 3.8221L13.5893 4.09713C13.0238 4.14409 12.7924 4.88199 13.223 5.27106L15.5815 7.40426L14.8746 10.5705C14.746 11.1474 15.3437 11.6036 15.8321 11.295L18.4991 9.61796L21.166 11.3017C21.6544 11.6103 22.2521 11.1541 22.1236 10.5772L21.4167 7.40426L23.7751 5.27106C24.2057 4.88199 23.9808 4.14409 23.4153 4.09713ZM18.4991 8.36353L16.0827 9.88629L16.7254 7.01519L14.5918 5.08323L17.4066 4.82832L18.4991 2.12493L19.598 4.83503L22.4127 5.08994L20.2792 7.0219L20.9218 9.89299L18.4991 8.36353Z" fill="#1B203D"/>
<path d="M36.4153 4.09713L33.3049 3.81539L32.0903 0.830251C31.8718 0.286889 31.1263 0.286889 30.9078 0.830251L29.6932 3.8221L26.5893 4.09713C26.0238 4.14409 25.7924 4.88199 26.223 5.27106L28.5815 7.40426L27.8746 10.5705C27.746 11.1474 28.3437 11.6036 28.8321 11.295L31.4991 9.61796L34.166 11.3017C34.6544 11.6103 35.2521 11.1541 35.1236 10.5772L34.4167 7.40426L36.7752 5.27106C37.2057 4.88199 36.9808 4.14409 36.4153 4.09713ZM31.4991 8.36353L29.0827 9.88629L29.7254 7.01519L27.5918 5.08323L30.4066 4.82832L31.4991 2.12493L32.598 4.83503L35.4128 5.08994L33.2792 7.0219L33.9218 9.89299L31.4991 8.36353Z" fill="#1B203D"/>
<path d="M49.4153 4.09713L46.3049 3.81539L45.0903 0.830251C44.8718 0.286889 44.1263 0.286889 43.9078 0.830251L42.6932 3.8221L39.5893 4.09713C39.0238 4.14409 38.7924 4.88199 39.223 5.27106L41.5815 7.40426L40.8746 10.5705C40.746 11.1474 41.3437 11.6036 41.8321 11.295L44.4991 9.61796L47.166 11.3017C47.6544 11.6103 48.2521 11.1541 48.1236 10.5772L47.4167 7.40426L49.7752 5.27106C50.2057 4.88199 49.9808 4.14409 49.4153 4.09713ZM44.4991 8.36353L42.0827 9.88629L42.7254 7.01519L40.5918 5.08323L43.4066 4.82832L44.4991 2.12493L45.598 4.83503L48.4128 5.08994L46.2792 7.0219L46.9218 9.89299L44.4991 8.36353Z" fill="#1B203D"/>
<path d="M62.4153 4.09713L59.3049 3.81539L58.0903 0.830251C57.8718 0.286889 57.1263 0.286889 56.9078 0.830251L55.6932 3.8221L52.5893 4.09713C52.0238 4.14409 51.7924 4.88199 52.223 5.27106L54.5815 7.40426L53.8746 10.5705C53.746 11.1474 54.3437 11.6036 54.8321 11.295L57.4991 9.61796L60.166 11.3017C60.6544 11.6103 61.2521 11.1541 61.1236 10.5772L60.4167 7.40426L62.7751 5.27106C63.2057 4.88199 62.9808 4.14409 62.4153 4.09713ZM57.4991 8.36353L55.0827 9.88629L55.7254 7.01519L53.5918 5.08323L56.4066 4.82832L57.4991 2.12493L58.598 4.83503L61.4127 5.08994L59.2792 7.0219L59.9218 9.89299L57.4991 8.36353Z" fill="#1B203D"/>
<path d="M76.4006 4.14804L75.1932 11.4208H74.3409L71.3295 5.71054H71.2585L70.3068 11.4208H69.4261L70.6335 4.14804H71.4858L74.5114 9.87247H74.5824L75.5341 4.14804H76.4006Z" fill="black"/>
<path d="M79.0932 11.5344C78.5913 11.5344 78.1711 11.4148 77.8326 11.1757C77.494 10.9366 77.2549 10.6016 77.1152 10.1708C76.9779 9.7399 76.9554 9.238 77.0478 8.66508C77.1377 8.10637 77.3165 7.61987 77.584 7.20557C77.8539 6.7889 78.1889 6.46693 78.589 6.23966C78.9914 6.01002 79.4341 5.8952 79.9171 5.8952C80.419 5.8952 80.838 6.01594 81.1742 6.25741C81.5127 6.49652 81.7518 6.8327 81.8915 7.26594C82.0312 7.69681 82.0549 8.20107 81.9625 8.77872C81.8726 9.3327 81.6915 9.81684 81.4192 10.2311C81.1493 10.6431 80.8143 10.9639 80.4142 11.1935C80.0165 11.4208 79.5762 11.5344 79.0932 11.5344ZM79.1074 10.7816C79.4909 10.7816 79.8236 10.6833 80.1053 10.4868C80.3894 10.2903 80.619 10.0311 80.7942 9.70912C80.9718 9.38715 81.0913 9.03914 81.1529 8.66508C81.2097 8.30997 81.2073 7.97972 81.1458 7.67432C81.0842 7.36655 80.9528 7.11916 80.7516 6.93213C80.5504 6.74274 80.2675 6.64804 79.9029 6.64804C79.5194 6.64804 79.1844 6.74747 78.8979 6.94633C78.6138 7.1452 78.3842 7.4068 78.209 7.73114C78.0338 8.05547 77.9166 8.40467 77.8574 8.77872C77.8006 9.13383 77.8018 9.46409 77.861 9.76949C77.9225 10.0725 78.0539 10.3175 78.2551 10.5046C78.4587 10.6892 78.7428 10.7816 79.1074 10.7816Z" fill="black"/>
<path d="M85.6211 11.4208L86.5302 5.96622H87.3398L87.1978 6.79008H87.2546C87.3967 6.5202 87.6133 6.30121 87.9045 6.13312C88.1957 5.96504 88.5046 5.88099 88.8313 5.88099C88.8952 5.88099 88.9722 5.88218 89.0621 5.88454C89.1521 5.88454 89.2219 5.8881 89.2717 5.8952L89.1296 6.74747C89.1012 6.74037 89.0373 6.72971 88.9379 6.71551C88.8384 6.69894 88.7319 6.69065 88.6183 6.69065C88.3531 6.69065 88.1081 6.74629 87.8832 6.85756C87.6583 6.96646 87.47 7.11797 87.3185 7.3121C87.167 7.50386 87.07 7.72285 87.0273 7.96906L86.4592 11.4208H85.6211Z" fill="black"/>
<path d="M90.9522 11.5486C90.6066 11.5486 90.3036 11.4835 90.0431 11.3533C89.7827 11.2207 89.5898 11.0301 89.4643 10.7816C89.3388 10.5306 89.3045 10.2276 89.3613 9.87247C89.4158 9.55997 89.5211 9.30666 89.6774 9.11253C89.8336 8.91603 90.023 8.76215 90.2456 8.65088C90.4705 8.53724 90.7119 8.4532 90.97 8.39875C91.2304 8.34193 91.4896 8.29813 91.7477 8.26736C92.0839 8.22474 92.3573 8.1916 92.568 8.16793C92.7787 8.14425 92.9373 8.10519 93.0439 8.05074C93.1504 7.99629 93.2155 7.90277 93.2392 7.7702V7.74179C93.296 7.39378 93.2498 7.12271 93.1007 6.92858C92.9515 6.73208 92.6852 6.63383 92.3017 6.63383C91.9039 6.63383 91.5713 6.72143 91.3038 6.89662C91.0363 7.07181 90.8386 7.25883 90.7108 7.4577L89.9721 7.17361C90.1663 6.84217 90.3983 6.58412 90.6681 6.39946C90.938 6.21243 91.2209 6.08222 91.5169 6.00883C91.8128 5.93308 92.0981 5.8952 92.3727 5.8952C92.5479 5.8952 92.7456 5.91651 92.9657 5.95912C93.1859 5.99936 93.3919 6.08341 93.5836 6.21125C93.7778 6.33909 93.9234 6.53204 94.0204 6.79008C94.1198 7.04813 94.1341 7.39378 94.063 7.82702L93.4664 11.4208H92.6284L92.7562 10.6821H92.7136C92.6378 10.8005 92.5218 10.9272 92.3656 11.0621C92.2117 11.197 92.0164 11.3119 91.7797 11.4066C91.5453 11.5013 91.2695 11.5486 90.9522 11.5486ZM91.1937 10.7958C91.5252 10.7958 91.8152 10.7307 92.0637 10.6005C92.3147 10.4702 92.5159 10.3022 92.6674 10.0962C92.8213 9.89023 92.9172 9.67361 92.9551 9.44633L93.0829 8.67929C93.0403 8.7219 92.9563 8.76097 92.8308 8.79648C92.7053 8.82962 92.5633 8.85921 92.4047 8.88525C92.2484 8.90893 92.0957 8.93024 91.9466 8.94918C91.7998 8.96575 91.6814 8.97995 91.5914 8.99179C91.3689 9.0202 91.157 9.06636 90.9558 9.13028C90.7569 9.19184 90.5888 9.28535 90.4515 9.41082C90.3166 9.53393 90.2325 9.70202 90.1994 9.91508C90.1497 10.2063 90.2195 10.4264 90.4089 10.5756C90.5983 10.7224 90.8599 10.7958 91.1937 10.7958Z" fill="black"/>
<path d="M98.2773 5.96622L98.1637 6.67645H95.337L95.4506 5.96622H98.2773ZM96.4876 4.6594H97.3256L96.4592 9.85827C96.4213 10.095 96.4272 10.2726 96.4769 10.3909C96.529 10.5069 96.6071 10.5851 96.7113 10.6253C96.8178 10.6632 96.9326 10.6821 97.0558 10.6821C97.1481 10.6821 97.2238 10.6774 97.283 10.6679C97.3422 10.6561 97.3896 10.6466 97.4251 10.6395L97.4819 11.3924C97.418 11.4137 97.3316 11.435 97.2227 11.4563C97.1161 11.48 96.9847 11.4918 96.8285 11.4918C96.5917 11.4918 96.3692 11.4409 96.1609 11.3391C95.9525 11.2373 95.7927 11.0822 95.6815 10.8739C95.5702 10.6656 95.5406 10.4028 95.5927 10.0855L96.4876 4.6594Z" fill="black"/>
<path d="M98.6289 11.4208L99.538 5.96622H100.376L99.467 11.4208H98.6289ZM100.213 5.04293C100.049 5.04293 99.9085 4.98729 99.7901 4.87602C99.6741 4.76475 99.6161 4.63099 99.6161 4.47474C99.6161 4.31849 99.6741 4.18473 99.7901 4.07347C99.9085 3.9622 100.049 3.90656 100.213 3.90656C100.376 3.90656 100.516 3.9622 100.632 4.07347C100.75 4.18473 100.809 4.31849 100.809 4.47474C100.809 4.63099 100.75 4.76475 100.632 4.87602C100.516 4.98729 100.376 5.04293 100.213 5.04293Z" fill="black"/>
<path d="M102.38 8.13952L101.84 11.4208H101.002L101.911 5.96622H102.721L102.579 6.81849H102.65C102.82 6.54151 103.051 6.31897 103.342 6.15088C103.633 5.98043 103.985 5.8952 104.397 5.8952C104.761 5.8952 105.069 5.97096 105.32 6.12247C105.573 6.27162 105.752 6.49889 105.856 6.80429C105.963 7.10732 105.978 7.49084 105.903 7.95486L105.32 11.4208H104.482L105.05 8.01168C105.121 7.58554 105.066 7.25173 104.883 7.01025C104.703 6.76878 104.418 6.64804 104.028 6.64804C103.758 6.64804 103.508 6.70604 103.278 6.82204C103.051 6.93805 102.858 7.10732 102.699 7.32986C102.543 7.5524 102.437 7.82228 102.38 8.13952Z" fill="black"/>
<path d="M108.712 13.5799C108.305 13.5799 107.964 13.5278 107.69 13.4236C107.415 13.3218 107.195 13.1869 107.029 13.0188C106.863 12.8531 106.738 12.6755 106.653 12.4861L107.406 12.0174C107.462 12.1168 107.536 12.2304 107.626 12.3583C107.716 12.4885 107.852 12.6009 108.034 12.6956C108.219 12.7927 108.478 12.8412 108.812 12.8412C109.25 12.8412 109.633 12.7347 109.962 12.5216C110.291 12.3086 110.495 11.9747 110.573 11.5202L110.744 10.4122H110.673C110.597 10.5117 110.491 10.6348 110.357 10.7816C110.222 10.926 110.04 11.055 109.813 11.1686C109.586 11.2799 109.295 11.3355 108.94 11.3355C108.497 11.3355 108.118 11.2314 107.803 11.023C107.488 10.8147 107.262 10.5117 107.125 10.1139C106.99 9.71622 106.97 9.23327 107.065 8.66508C107.157 8.10637 107.335 7.61987 107.597 7.20557C107.862 6.7889 108.189 6.46693 108.577 6.23966C108.966 6.01002 109.389 5.8952 109.849 5.8952C110.204 5.8952 110.476 5.95438 110.665 6.07276C110.857 6.18876 110.997 6.32133 111.085 6.47048C111.172 6.61726 111.238 6.738 111.283 6.8327H111.369L111.511 5.96622H112.32L111.397 11.577C111.319 12.0458 111.15 12.4269 110.889 12.7205C110.629 13.0164 110.309 13.233 109.93 13.3703C109.552 13.51 109.146 13.5799 108.712 13.5799ZM109.153 10.5827C109.487 10.5827 109.784 10.5058 110.044 10.3519C110.307 10.198 110.525 9.97664 110.697 9.68781C110.87 9.39899 110.99 9.05334 111.056 8.65088C111.122 8.25789 111.118 7.91106 111.042 7.6104C110.966 7.30973 110.823 7.07418 110.612 6.90372C110.404 6.73327 110.13 6.64804 109.792 6.64804C109.434 6.64804 109.125 6.738 108.865 6.91793C108.607 7.09785 108.397 7.33933 108.237 7.64236C108.076 7.94539 107.964 8.28156 107.903 8.65088C107.841 9.02967 107.844 9.36466 107.91 9.65585C107.976 9.94468 108.111 10.172 108.315 10.3377C108.521 10.501 108.8 10.5827 109.153 10.5827Z" fill="black"/>
<path d="M117.519 7.18781L116.724 7.40088C116.695 7.27304 116.646 7.14993 116.575 7.03156C116.506 6.91082 116.399 6.81258 116.255 6.73682C116.113 6.65869 115.919 6.61963 115.673 6.61963C115.339 6.61963 115.049 6.69657 114.803 6.85045C114.556 7.00197 114.415 7.19491 114.38 7.42929C114.344 7.63525 114.392 7.79979 114.522 7.9229C114.652 8.046 114.87 8.14662 115.175 8.22474L115.957 8.42361C116.425 8.54435 116.759 8.72545 116.958 8.96693C117.159 9.20604 117.228 9.51736 117.164 9.90088C117.112 10.2134 116.976 10.4927 116.756 10.7389C116.536 10.9852 116.254 11.1793 115.911 11.3213C115.567 11.4634 115.185 11.5344 114.763 11.5344C114.202 11.5344 113.76 11.4137 113.435 11.1722C113.111 10.9283 112.938 10.5756 112.917 10.1139L113.755 9.91508C113.776 10.2063 113.88 10.4264 114.067 10.5756C114.257 10.7224 114.522 10.7958 114.863 10.7958C115.254 10.7958 115.579 10.7129 115.839 10.5472C116.1 10.3791 116.248 10.1779 116.283 9.94349C116.319 9.75173 116.281 9.59193 116.17 9.46409C116.061 9.33625 115.871 9.24037 115.602 9.17645L114.735 8.96338C114.252 8.84264 113.914 8.65798 113.719 8.4094C113.528 8.16082 113.464 7.84832 113.528 7.4719C113.58 7.16414 113.712 6.89188 113.925 6.65514C114.141 6.4184 114.411 6.23256 114.735 6.09761C115.062 5.96267 115.417 5.8952 115.8 5.8952C116.34 5.8952 116.744 6.01357 117.011 6.25031C117.279 6.48469 117.448 6.79719 117.519 7.18781Z" fill="black"/>
<path d="M121.188 13.4662C121.046 13.4662 120.921 13.4544 120.812 13.4307C120.705 13.4094 120.632 13.3881 120.592 13.3668L120.933 12.6282C121.127 12.6802 121.3 12.6956 121.451 12.6743C121.605 12.6554 121.751 12.5808 121.888 12.4506C122.028 12.3228 122.173 12.1215 122.325 11.8469L122.559 11.4208L121.465 5.96622H122.339L123.12 10.327H123.177L125.407 5.96622H126.352L123.007 12.2091C122.85 12.5003 122.679 12.7382 122.492 12.9229C122.305 13.1076 122.102 13.2437 121.884 13.3313C121.667 13.4212 121.435 13.4662 121.188 13.4662Z" fill="black"/>
<path d="M128.626 11.5344C128.103 11.5344 127.671 11.4184 127.33 11.1864C126.989 10.952 126.751 10.6253 126.616 10.2063C126.481 9.78488 126.46 9.29482 126.552 8.73611C126.645 8.1774 126.828 7.68497 127.103 7.25883C127.377 6.83033 127.72 6.49652 128.129 6.25741C128.539 6.01594 128.988 5.8952 129.479 5.8952C129.763 5.8952 130.036 5.94255 130.299 6.03724C130.562 6.13194 130.789 6.28582 130.981 6.49889C131.172 6.70959 131.306 6.98895 131.382 7.33696C131.458 7.68497 131.453 8.11347 131.368 8.62247L131.311 8.97758H127.106L127.22 8.25315H130.572C130.627 7.94539 130.613 7.67077 130.53 7.42929C130.449 7.18781 130.308 6.99723 130.107 6.85756C129.908 6.71788 129.656 6.64804 129.351 6.64804C129.036 6.64804 128.742 6.73327 128.47 6.90372C128.198 7.07181 127.97 7.28488 127.788 7.54293C127.606 7.79861 127.492 8.05902 127.447 8.32418L127.348 8.94918C127.277 9.40135 127.287 9.7612 127.38 10.0287C127.474 10.2962 127.639 10.4892 127.873 10.6076C128.108 10.7236 128.401 10.7816 128.754 10.7816C128.979 10.7816 129.186 10.7508 129.376 10.6892C129.565 10.6253 129.734 10.5306 129.883 10.4051C130.032 10.2773 130.158 10.1187 130.26 9.92929L131.027 10.1566C130.897 10.4312 130.713 10.6727 130.476 10.881C130.242 11.087 129.967 11.2479 129.653 11.3639C129.34 11.4776 128.998 11.5344 128.626 11.5344Z" fill="black"/>
<path d="M135.475 5.96622L135.361 6.67645H132.534L132.648 5.96622H135.475ZM133.685 4.6594H134.523L133.656 9.85827C133.619 10.095 133.624 10.2726 133.674 10.3909C133.726 10.5069 133.804 10.5851 133.909 10.6253C134.015 10.6632 134.13 10.6821 134.253 10.6821C134.345 10.6821 134.421 10.6774 134.48 10.6679C134.539 10.6561 134.587 10.6466 134.622 10.6395L134.679 11.3924C134.615 11.4137 134.529 11.435 134.42 11.4563C134.313 11.48 134.182 11.4918 134.026 11.4918C133.789 11.4918 133.566 11.4409 133.358 11.3391C133.15 11.2373 132.99 11.0822 132.879 10.8739C132.767 10.6656 132.738 10.4028 132.79 10.0855L133.685 4.6594Z" fill="black"/>
</svg>
