<svg width="63" height="12" viewBox="0 0 63 12" fill="none" xmlns="http://www.w3.org/2000/svg">
<path d="M5.5 9.60118L8.16742 11.286C8.65591 11.5947 9.25367 11.1383 9.12512 10.561L8.41809 7.39284L10.777 5.25834C11.2076 4.86903 10.9762 4.13068 10.4106 4.08369L7.30613 3.80849L6.09133 0.814814C5.8728 0.27112 5.1272 0.27112 4.90867 0.814814L3.69387 3.80178L0.589376 4.07698C0.0237545 4.12397 -0.207636 4.86232 0.223007 5.25163L2.58191 7.38613L1.87488 10.5543C1.74633 11.1316 2.34409 11.588 2.83258 11.2793L5.5 9.60118Z" fill="#1B203D"/>
<path d="M18.5 9.60118L21.1674 11.286C21.6559 11.5947 22.2537 11.1383 22.1251 10.561L21.4181 7.39284L23.777 5.25834C24.2076 4.86903 23.9762 4.13068 23.4106 4.08369L20.3061 3.80849L19.0913 0.814814C18.8728 0.27112 18.1272 0.27112 17.9087 0.814814L16.6939 3.80178L13.5894 4.07698C13.0238 4.12397 12.7924 4.86232 13.223 5.25163L15.5819 7.38613L14.8749 10.5543C14.7463 11.1316 15.3441 11.588 15.8326 11.2793L18.5 9.60118Z" fill="#1B203D"/>
<path d="M31.5 9.60118L34.1674 11.286C34.6559 11.5947 35.2537 11.1383 35.1251 10.561L34.4181 7.39284L36.777 5.25834C37.2076 4.86903 36.9762 4.13068 36.4106 4.08369L33.3061 3.80849L32.0913 0.814814C31.8728 0.27112 31.1272 0.27112 30.9087 0.814814L29.6939 3.80178L26.5894 4.07698C26.0238 4.12397 25.7924 4.86232 26.223 5.25163L28.5819 7.38613L27.8749 10.5543C27.7463 11.1316 28.3441 11.588 28.8326 11.2793L31.5 9.60118Z" fill="#1B203D"/>
<path d="M44.5 9.60118L47.1674 11.286C47.6559 11.5947 48.2537 11.1383 48.1251 10.561L47.4181 7.39284L49.777 5.25834C50.2076 4.86903 49.9762 4.13068 49.4106 4.08369L46.3061 3.80849L45.0913 0.814814C44.8728 0.27112 44.1272 0.27112 43.9087 0.814814L42.6939 3.80178L39.5894 4.07698C39.0238 4.12397 38.7924 4.86232 39.223 5.25163L41.5819 7.38613L40.8749 10.5543C40.7463 11.1316 41.3441 11.588 41.8326 11.2793L44.5 9.60118Z" fill="#1B203D"/>
<path d="M62.4153 4.08145L59.3049 3.7997L58.0903 0.814565C57.8718 0.271203 57.1263 0.271203 56.9078 0.814565L55.6932 3.80641L52.5893 4.08145C52.0238 4.1284 51.7924 4.8663 52.223 5.25538L54.5815 7.38858L53.8746 10.5548C53.746 11.1317 54.3437 11.5879 54.8321 11.2793L57.4991 9.60227L60.166 11.286C60.6544 11.5946 61.2521 11.1384 61.1236 10.5615L60.4167 7.38858L62.7751 5.25538C63.2057 4.8663 62.9808 4.1284 62.4153 4.08145ZM57.4991 8.34784V2.10924L58.598 4.81935L61.4127 5.07426L59.2792 7.00621L59.9218 9.87731L57.4991 8.34784Z" fill="#1B203D"/>
</svg>
