<svg width="63" height="12" viewBox="0 0 63 12" fill="none" xmlns="http://www.w3.org/2000/svg">
<path d="M5.50012 9.60124L8.16754 11.286C8.65603 11.5948 9.25379 11.1384 9.12524 10.5611L8.41822 7.39291L10.7771 5.2584C11.2078 4.86909 10.9764 4.13074 10.4107 4.08375L7.30625 3.80855L6.09145 0.814875C5.87292 0.271181 5.12733 0.271181 4.90879 0.814875L3.69399 3.80184L0.589498 4.07704C0.0238765 4.12403 -0.207514 4.86238 0.22313 5.25169L2.58203 7.38619L1.875 10.5544C1.74645 11.1316 2.34421 11.5881 2.8327 11.2793L5.50012 9.60124Z" fill="#1B203D"/>
<path d="M18.5001 9.60124L21.1675 11.286C21.656 11.5948 22.2538 11.1384 22.1252 10.5611L21.4182 7.39291L23.7771 5.2584C24.2078 4.86909 23.9764 4.13074 23.4107 4.08375L20.3063 3.80855L19.0915 0.814875C18.8729 0.271181 18.1273 0.271181 17.9088 0.814875L16.694 3.80184L13.5895 4.07704C13.0239 4.12403 12.7925 4.86238 13.2231 5.25169L15.582 7.38619L14.875 10.5544C14.7465 11.1316 15.3442 11.5881 15.8327 11.2793L18.5001 9.60124Z" fill="#1B203D"/>
<path d="M31.5001 9.60124L34.1675 11.286C34.656 11.5948 35.2538 11.1384 35.1252 10.5611L34.4182 7.39291L36.7771 5.2584C37.2078 4.86909 36.9764 4.13074 36.4107 4.08375L33.3063 3.80855L32.0915 0.814875C31.8729 0.271181 31.1273 0.271181 30.9088 0.814875L29.694 3.80184L26.5895 4.07704C26.0239 4.12403 25.7925 4.86238 26.2231 5.25169L28.582 7.38619L27.875 10.5544C27.7465 11.1316 28.3442 11.5881 28.8327 11.2793L31.5001 9.60124Z" fill="#1B203D"/>
<path d="M44.5001 9.60124L47.1675 11.286C47.656 11.5948 48.2538 11.1384 48.1252 10.5611L47.4182 7.39291L49.7771 5.2584C50.2078 4.86909 49.9764 4.13074 49.4107 4.08375L46.3063 3.80855L45.0915 0.814875C44.8729 0.271181 44.1273 0.271181 43.9088 0.814875L42.694 3.80184L39.5895 4.07704C39.0239 4.12403 38.7925 4.86238 39.2231 5.25169L41.582 7.38619L40.875 10.5544C40.7464 11.1316 41.3442 11.5881 41.8327 11.2793L44.5001 9.60124Z" fill="#1B203D"/>
<path d="M57.5001 9.60124L60.1675 11.286C60.656 11.5948 61.2538 11.1384 61.1252 10.5611L60.4182 7.39291L62.7771 5.2584C63.2078 4.86909 62.9764 4.13074 62.4107 4.08375L59.3063 3.80855L58.0915 0.814875C57.8729 0.271181 57.1273 0.271181 56.9088 0.814875L55.694 3.80184L52.5895 4.07704C52.0239 4.12403 51.7925 4.86238 52.2231 5.25169L54.582 7.38619L53.875 10.5544C53.7464 11.1316 54.3442 11.5881 54.8327 11.2793L57.5001 9.60124Z" fill="#1B203D"/>
</svg>
