<svg width="63" height="12" viewBox="0 0 63 12" fill="none" xmlns="http://www.w3.org/2000/svg">
<path d="M10.4153 4.09713L7.30488 3.81539L6.09029 0.830251C5.87179 0.286889 5.12633 0.286889 4.90783 0.830251L3.69324 3.8221L0.589275 4.09713C0.0237504 4.14409 -0.207601 4.88199 0.222969 5.27106L2.58147 7.40426L1.87456 10.5705C1.74603 11.1474 2.34369 11.6036 2.8321 11.295L5.49906 9.61796L8.16602 11.3017C8.65443 11.6103 9.25209 11.1541 9.12356 10.5772L8.41665 7.40426L10.7751 5.27106C11.2057 4.88199 10.9808 4.14409 10.4153 4.09713ZM5.49906 8.36353L3.08273 9.88629L3.72537 7.01519L1.5918 5.08323L4.40657 4.82832L5.49906 2.12493L6.59798 4.83503L9.41275 5.08994L7.27918 7.0219L7.92182 9.89299L5.49906 8.36353Z" fill="#1B203D"/>
<path d="M23.4153 4.09713L20.3049 3.81539L19.0903 0.830251C18.8718 0.286889 18.1263 0.286889 17.9078 0.830251L16.6932 3.8221L13.5893 4.09713C13.0238 4.14409 12.7924 4.88199 13.223 5.27106L15.5815 7.40426L14.8746 10.5705C14.746 11.1474 15.3437 11.6036 15.8321 11.295L18.4991 9.61796L21.166 11.3017C21.6544 11.6103 22.2521 11.1541 22.1236 10.5772L21.4167 7.40426L23.7751 5.27106C24.2057 4.88199 23.9808 4.14409 23.4153 4.09713ZM18.4991 8.36353L16.0827 9.88629L16.7254 7.01519L14.5918 5.08323L17.4066 4.82832L18.4991 2.12493L19.598 4.83503L22.4127 5.08994L20.2792 7.0219L20.9218 9.89299L18.4991 8.36353Z" fill="#1B203D"/>
<path d="M36.4153 4.09713L33.3049 3.81539L32.0903 0.830251C31.8718 0.286889 31.1263 0.286889 30.9078 0.830251L29.6932 3.8221L26.5893 4.09713C26.0238 4.14409 25.7924 4.88199 26.223 5.27106L28.5815 7.40426L27.8746 10.5705C27.746 11.1474 28.3437 11.6036 28.8321 11.295L31.4991 9.61796L34.166 11.3017C34.6544 11.6103 35.2521 11.1541 35.1236 10.5772L34.4167 7.40426L36.7752 5.27106C37.2057 4.88199 36.9808 4.14409 36.4153 4.09713ZM31.4991 8.36353L29.0827 9.88629L29.7254 7.01519L27.5918 5.08323L30.4066 4.82832L31.4991 2.12493L32.598 4.83503L35.4128 5.08994L33.2792 7.0219L33.9218 9.89299L31.4991 8.36353Z" fill="#1B203D"/>
<path d="M49.4153 4.09713L46.3049 3.81539L45.0903 0.830251C44.8718 0.286889 44.1263 0.286889 43.9078 0.830251L42.6932 3.8221L39.5893 4.09713C39.0238 4.14409 38.7924 4.88199 39.223 5.27106L41.5815 7.40426L40.8746 10.5705C40.746 11.1474 41.3437 11.6036 41.8321 11.295L44.4991 9.61796L47.166 11.3017C47.6544 11.6103 48.2521 11.1541 48.1236 10.5772L47.4167 7.40426L49.7752 5.27106C50.2057 4.88199 49.9808 4.14409 49.4153 4.09713ZM44.4991 8.36353L42.0827 9.88629L42.7254 7.01519L40.5918 5.08323L43.4066 4.82832L44.4991 2.12493L45.598 4.83503L48.4128 5.08994L46.2792 7.0219L46.9218 9.89299L44.4991 8.36353Z" fill="#1B203D"/>
<path d="M62.4153 4.09713L59.3049 3.81539L58.0903 0.830251C57.8718 0.286889 57.1263 0.286889 56.9078 0.830251L55.6932 3.8221L52.5893 4.09713C52.0238 4.14409 51.7924 4.88199 52.223 5.27106L54.5815 7.40426L53.8746 10.5705C53.746 11.1474 54.3437 11.6036 54.8321 11.295L57.4991 9.61796L60.166 11.3017C60.6544 11.6103 61.2521 11.1541 61.1236 10.5772L60.4167 7.40426L62.7751 5.27106C63.2057 4.88199 62.9808 4.14409 62.4153 4.09713ZM57.4991 8.36353L55.0827 9.88629L55.7254 7.01519L53.5918 5.08323L56.4066 4.82832L57.4991 2.12493L58.598 4.83503L61.4127 5.08994L59.2792 7.0219L59.9218 9.89299L57.4991 8.36353Z" fill="#1B203D"/>
</svg>
