<svg width="63" height="12" viewBox="0 0 63 12" fill="none" xmlns="http://www.w3.org/2000/svg">
<path d="M5.5 9.60112L8.16742 11.2859C8.65591 11.5947 9.25367 11.1382 9.12512 10.561L8.41809 7.39278L10.777 5.25828C11.2076 4.86897 10.9762 4.13062 10.4106 4.08363L7.30613 3.80843L6.09133 0.814753C5.8728 0.271059 5.1272 0.271059 4.90867 0.814753L3.69387 3.80172L0.589376 4.07692C0.0237545 4.12391 -0.207636 4.86226 0.223007 5.25157L2.58191 7.38607L1.87488 10.5543C1.74633 11.1315 2.34409 11.588 2.83258 11.2792L5.5 9.60112Z" fill="#1B203D"/>
<path d="M18.5 9.60112L21.1674 11.2859C21.6559 11.5947 22.2537 11.1382 22.1251 10.561L21.4181 7.39278L23.777 5.25828C24.2076 4.86897 23.9762 4.13062 23.4106 4.08363L20.3061 3.80843L19.0913 0.814753C18.8728 0.271059 18.1272 0.271059 17.9087 0.814753L16.6939 3.80172L13.5894 4.07692C13.0238 4.12391 12.7924 4.86226 13.223 5.25157L15.5819 7.38607L14.8749 10.5543C14.7463 11.1315 15.3441 11.588 15.8326 11.2792L18.5 9.60112Z" fill="#1B203D"/>
<path d="M31.5 9.60112L34.1674 11.2859C34.6559 11.5947 35.2537 11.1382 35.1251 10.561L34.4181 7.39278L36.777 5.25828C37.2076 4.86897 36.9762 4.13062 36.4106 4.08363L33.3061 3.80843L32.0913 0.814753C31.8728 0.271059 31.1272 0.271059 30.9087 0.814753L29.6939 3.80172L26.5894 4.07692C26.0238 4.12391 25.7924 4.86226 26.223 5.25157L28.5819 7.38607L27.8749 10.5543C27.7463 11.1315 28.3441 11.588 28.8326 11.2792L31.5 9.60112Z" fill="#1B203D"/>
<path d="M44.5 9.60112L47.1674 11.2859C47.6559 11.5947 48.2537 11.1382 48.1251 10.561L47.4181 7.39278L49.777 5.25828C50.2076 4.86897 49.9762 4.13062 49.4106 4.08363L46.3061 3.80843L45.0913 0.814753C44.8728 0.271059 44.1272 0.271059 43.9087 0.814753L42.6939 3.80172L39.5894 4.07692C39.0238 4.12391 38.7924 4.86226 39.223 5.25157L41.5819 7.38607L40.8749 10.5543C40.7463 11.1315 41.3441 11.588 41.8326 11.2792L44.5 9.60112Z" fill="#1B203D"/>
<path d="M62.4153 4.08138L59.3049 3.79964L58.0903 0.814504C57.8718 0.271142 57.1263 0.271142 56.9078 0.814504L55.6932 3.80635L52.5893 4.08138C52.0238 4.12834 51.7924 4.86624 52.223 5.25532L54.5815 7.38851L53.8746 10.5548C53.746 11.1317 54.3437 11.5878 54.8321 11.2793L57.4991 9.60221L60.166 11.286C60.6544 11.5945 61.2521 11.1384 61.1236 10.5615L60.4167 7.38851L62.7751 5.25532C63.2057 4.86624 62.9808 4.12834 62.4153 4.08138ZM57.4991 8.34778L55.0827 9.87054L55.7254 6.99944L53.5918 5.06749L56.4066 4.81258L57.4991 2.10918L58.598 4.81928L61.4127 5.07419L59.2792 7.00615L59.9218 9.87725L57.4991 8.34778Z" fill="#1B203D"/>
</svg>
