<svg width="55" height="55" viewBox="0 0 55 55" fill="none" xmlns="http://www.w3.org/2000/svg">
<path d="M12.1825 4.73C12.375 4.565 12.5675 4.4 12.705 4.29C16.995 1.5125 22 0 27.5 0C32.67 0 37.51 1.375 41.635 3.905C41.9375 4.125 42.735 4.6475 43.175 5.17C39.1875 0.77 27.5 10.175 27.5 10.175C23.375 7.0675 19.7175 4.95 16.94 4.125C14.6025 3.5475 13.0075 4.125 12.265 4.675M47.685 8.8275C47.5475 8.69 47.41 8.5525 47.3 8.415C46.31 7.315 45.045 7.04 44 7.1225C42.9275 7.4525 38.225 9.13 32.45 14.6025C32.45 14.6025 38.9675 20.9275 42.955 27.39C46.9425 33.8525 49.3075 38.94 47.85 46.0075C52.25 41.1125 55 34.6225 55 27.5C55 20.295 52.25 13.75 47.685 8.8275ZM37.7575 30.14C35.97 28.16 33.3575 25.3275 29.865 21.8625C29.1225 21.12 28.325 20.35 27.5 19.525C27.5 19.525 26.2075 20.79 24.5575 22.4675C22.44 24.585 19.7175 27.3625 18.1775 28.985C15.4825 31.8725 7.72752 40.9475 7.28752 46.035C7.28752 46.035 5.50002 42.02 9.35002 32.6975C11.825 26.62 19.25 17.49 22.4125 14.52C22.4125 14.52 19.58 11.385 16.005 9.2125L15.8675 9.13C14.135 8.1125 12.265 7.315 10.45 7.205C8.60752 7.3425 7.45252 8.69 7.45252 8.69C2.65732 13.7782 -0.00917045 20.5083 2.36974e-05 27.5C2.36974e-05 34.7935 2.89734 41.7882 8.05458 46.9454C10.6082 49.499 13.6398 51.5247 16.9762 52.9067C20.3127 54.2887 23.8887 55 27.5 55C35.5575 55 42.8175 51.535 47.85 46.0075C47.85 46.0075 47.2725 42.35 43.56 37.125C42.7075 35.9425 39.5175 32.1475 37.7575 30.14Z" fill="#1B203D"/>
</svg>
