<svg width="38" height="37" viewBox="0 0 38 37" fill="none" xmlns="http://www.w3.org/2000/svg">
<path d="M11.4105 37C10.3646 37 9.46885 36.6374 8.72336 35.9122C7.97787 35.187 7.60576 34.3163 7.60703 33.3C7.60703 32.2825 7.97977 31.4111 8.72526 30.6859C9.47075 29.9607 10.3658 29.5988 11.4105 29.6C12.4565 29.6 13.3522 29.9626 14.0977 30.6878C14.8432 31.413 15.2153 32.2837 15.2141 33.3C15.2141 34.3175 14.8413 35.1888 14.0958 35.914C13.3503 36.6392 12.4552 37.0012 11.4105 37ZM30.4281 37C29.3821 37 28.4864 36.6374 27.7409 35.9122C26.9954 35.187 26.6233 34.3163 26.6246 33.3C26.6246 32.2825 26.9973 31.4111 27.7428 30.6859C28.4883 29.9607 29.3834 29.5988 30.4281 29.6C31.4741 29.6 32.3698 29.9626 33.1153 30.6878C33.8608 31.413 34.2329 32.2837 34.2316 33.3C34.2316 34.3175 33.8589 35.1888 33.1134 35.914C32.3679 36.6392 31.4728 37.0012 30.4281 37ZM7.98738 3.7H36.0383C36.7673 3.7 37.322 4.01635 37.7023 4.64905C38.0827 5.28175 38.0985 5.92123 37.7499 6.5675L30.9986 18.4075C30.65 19.0242 30.1822 19.5021 29.5951 19.8412C29.0081 20.1804 28.3666 20.35 27.6706 20.35H13.5025L11.4105 24.05H34.2316V27.75H11.4105C9.98423 27.75 8.90656 27.1407 8.17756 25.9222C7.44855 24.7037 7.41685 23.4938 8.08247 22.2925L10.6498 17.76L3.80351 3.7H0V0H6.18071L7.98738 3.7Z" fill="#1B203D"/>
</svg>
