<svg width="70" height="6" viewBox="0 0 70 6" fill="none" xmlns="http://www.w3.org/2000/svg">
<path d="M70 3.00001L65 0.113254L65 5.88676L70 3.00001ZM-4.37114e-08 3.5L0.972222 3.5L0.972222 2.5L4.37114e-08 2.5L-4.37114e-08 3.5ZM2.91667 3.5L4.86111 3.5L4.86111 2.5L2.91667 2.5L2.91667 3.5ZM6.80555 3.5L8.75 3.5L8.75 2.5L6.80555 2.5L6.80555 3.5ZM10.6944 3.5L12.6389 3.5L12.6389 2.5L10.6944 2.5L10.6944 3.5ZM14.5833 3.5L16.5278 3.5L16.5278 2.5L14.5833 2.5L14.5833 3.5ZM18.4722 3.5L20.4167 3.5L20.4167 2.5L18.4722 2.5L18.4722 3.5ZM22.3611 3.5L24.3056 3.5L24.3056 2.5L22.3611 2.5L22.3611 3.5ZM26.25 3.5L28.1944 3.5L28.1944 2.5L26.25 2.5L26.25 3.5ZM30.1389 3.5L32.0833 3.5L32.0833 2.5L30.1389 2.5L30.1389 3.5ZM34.0278 3.5L35.9722 3.5L35.9722 2.5L34.0278 2.5L34.0278 3.5ZM37.9167 3.5L39.8611 3.5L39.8611 2.5L37.9167 2.5L37.9167 3.5ZM41.8055 3.5L43.75 3.5L43.75 2.5L41.8055 2.5L41.8055 3.5ZM45.6944 3.5L47.6389 3.5L47.6389 2.5L45.6944 2.5L45.6944 3.5ZM49.5833 3.5L51.5278 3.5L51.5278 2.5L49.5833 2.5L49.5833 3.5ZM53.4722 3.5L55.4166 3.5L55.4166 2.5L53.4722 2.5L53.4722 3.5ZM57.3611 3.50001L59.3055 3.50001L59.3055 2.50001L57.3611 2.50001L57.3611 3.50001ZM61.25 3.50001L63.1944 3.50001L63.1944 2.50001L61.25 2.50001L61.25 3.50001ZM65.1389 3.50001L67.0833 3.50001L67.0833 2.50001L65.1389 2.50001L65.1389 3.50001Z" fill="black"/>
</svg>
