<svg width="117" height="22" viewBox="0 0 117 22" fill="none" xmlns="http://www.w3.org/2000/svg">
<path d="M8.7506 20.0263H5.57252C4.56033 20.0263 3.59167 19.5909 2.87333 18.8943C2.17677 18.176 1.74141 17.2074 1.74141 16.1952V5.57253C1.74141 4.56033 2.17677 3.59167 2.87333 2.87334C3.59167 2.17677 4.56033 1.76319 5.57252 1.76319H8.7506V20.0263ZM5.57252 7.62939e-06C4.0946 7.62939e-06 2.67721 0.587111 1.63215 1.63216C0.587104 2.67721 0 4.09461 0 5.57253V16.1952C0 19.2753 2.4924 21.7677 5.57252 21.7677H10.5029V7.62939e-06H5.57252ZM3.38487 6.53031C3.38487 7.66223 4.29912 8.57647 5.44192 8.57647C6.56295 8.57647 7.47719 7.66223 7.47719 6.53031C7.47719 5.39839 6.56295 4.48415 5.44192 4.48415C4.29912 4.48415 3.38487 5.39839 3.38487 6.53031ZM16.9897 9.79546C18.1978 9.79546 19.1773 10.7641 19.1773 11.9722C19.1773 13.1912 18.1978 14.149 16.9897 14.149C15.7816 14.149 14.7802 13.1912 14.7802 11.9722C14.7802 10.7641 15.7816 9.79546 16.9897 9.79546ZM16.1951 21.7677C17.6731 21.7677 19.0905 21.1806 20.1355 20.1355C21.1806 19.0905 21.7677 17.6731 21.7677 16.1952V5.57253C21.7677 2.49241 19.2753 7.62939e-06 16.1951 7.62939e-06H12.6797V21.7677H16.1951Z" fill="#1B203D"/>
<path d="M35.0991 4.6686V18H33.5368L26.2722 7.53277H26.142V18H24.5277V4.6686H26.09L33.3806 15.1619H33.5107V4.6686H35.0991ZM38.1211 18V8.00145H39.6573V18H38.1211ZM38.9022 6.33503C38.6028 6.33503 38.3446 6.23305 38.1276 6.02908C37.9149 5.82512 37.8086 5.57993 37.8086 5.29351C37.8086 5.0071 37.9149 4.76191 38.1276 4.55794C38.3446 4.35398 38.6028 4.252 38.9022 4.252C39.2017 4.252 39.4577 4.35398 39.6703 4.55794C39.8873 4.76191 39.9958 5.0071 39.9958 5.29351C39.9958 5.57993 39.8873 5.82512 39.6703 6.02908C39.4577 6.23305 39.2017 6.33503 38.9022 6.33503ZM44.0073 11.9852V18H42.471V8.00145H43.9552V9.56372H44.0854C44.3197 9.05599 44.6756 8.64806 45.1529 8.33994C45.6303 8.02749 46.2465 7.87126 47.0016 7.87126C47.6786 7.87126 48.271 8.01013 48.7787 8.28787C49.2865 8.56127 49.6814 8.97787 49.9634 9.53769C50.2455 10.0932 50.3866 10.7962 50.3866 11.6468V18H48.8503V11.7509C48.8503 10.9654 48.6464 10.3535 48.2384 9.91524C47.8305 9.47259 47.2707 9.25127 46.559 9.25127C46.0686 9.25127 45.6303 9.35759 45.2441 9.57023C44.8622 9.78288 44.5606 10.0932 44.3393 10.5011C44.1179 10.909 44.0073 11.4037 44.0073 11.9852ZM57.5421 8.00145V9.30335H52.3606V8.00145H57.5421ZM53.8707 5.60597H55.407V15.1358C55.407 15.5698 55.4699 15.8953 55.5958 16.1123C55.7259 16.3249 55.8909 16.4681 56.0905 16.5419C56.2944 16.6113 56.5093 16.646 56.7349 16.646C56.9042 16.646 57.043 16.6374 57.1515 16.62C57.26 16.5983 57.3468 16.5809 57.4119 16.5679L57.7244 17.9479C57.6202 17.987 57.4748 18.026 57.2882 18.0651C57.1016 18.1085 56.8651 18.1302 56.5787 18.1302C56.1447 18.1302 55.7194 18.0369 55.3028 17.8503C54.8906 17.6637 54.5477 17.3794 54.2743 16.9975C54.0053 16.6157 53.8707 16.134 53.8707 15.5524V5.60597ZM63.9376 18.2083C62.9742 18.2083 62.1432 17.9957 61.4445 17.5704C60.7502 17.1407 60.2142 16.5419 59.8367 15.7738C59.4635 15.0013 59.2769 14.103 59.2769 13.0788C59.2769 12.0547 59.4635 11.152 59.8367 10.3709C60.2142 9.58542 60.7393 8.97353 61.412 8.53523C62.089 8.09258 62.8788 7.87126 63.7814 7.87126C64.3022 7.87126 64.8164 7.95806 65.3242 8.13164C65.8319 8.30523 66.2941 8.5873 66.7107 8.97787C67.1273 9.3641 67.4593 9.87618 67.7066 10.5141C67.954 11.152 68.0777 11.9375 68.0777 12.8705V13.5215H60.3705V12.1936H66.5154C66.5154 11.6294 66.4026 11.126 66.1769 10.6834C65.9556 10.2407 65.6388 9.89137 65.2265 9.63533C64.8186 9.37929 64.3369 9.25127 63.7814 9.25127C63.1695 9.25127 62.6401 9.40316 62.1931 9.70693C61.7505 10.0064 61.4098 10.3969 61.1711 10.8786C60.9324 11.3603 60.8131 11.8768 60.8131 12.4279V13.3132C60.8131 14.0683 60.9433 14.7084 61.2037 15.2335C61.4684 15.7542 61.8351 16.1513 62.3038 16.4247C62.7725 16.6938 63.3171 16.8283 63.9376 16.8283C64.3412 16.8283 64.7058 16.7719 65.0312 16.659C65.3611 16.5419 65.6453 16.3683 65.884 16.1383C66.1227 15.904 66.3071 15.6132 66.4373 15.266L67.9214 15.6826C67.7652 16.186 67.5027 16.6287 67.1338 17.0106C66.7649 17.3881 66.3093 17.6832 65.7668 17.8958C65.2244 18.1042 64.6146 18.2083 63.9376 18.2083ZM71.9508 11.9852V18H70.4146V8.00145H71.8987V9.56372H72.0289C72.2633 9.05599 72.6191 8.64806 73.0965 8.33994C73.5738 8.02749 74.1901 7.87126 74.9452 7.87126C75.6221 7.87126 76.2145 8.01013 76.7222 8.28787C77.23 8.56127 77.6249 8.97787 77.907 9.53769C78.189 10.0932 78.3301 10.7962 78.3301 11.6468V18H76.7939V11.7509C76.7939 10.9654 76.5899 10.3535 76.182 9.91524C75.774 9.47259 75.2142 9.25127 74.5025 9.25127C74.0121 9.25127 73.5738 9.35759 73.1876 9.57023C72.8057 9.78288 72.5041 10.0932 72.2828 10.5011C72.0615 10.909 71.9508 11.4037 71.9508 11.9852ZM84.9128 18.2083C84.0796 18.2083 83.344 17.9978 82.7061 17.5769C82.0682 17.1516 81.5691 16.5527 81.2089 15.7803C80.8487 15.0035 80.6686 14.0856 80.6686 13.0268C80.6686 11.9766 80.8487 11.0652 81.2089 10.2928C81.5691 9.52033 82.0703 8.92363 82.7126 8.50268C83.3549 8.08174 84.0969 7.87126 84.9388 7.87126C85.5898 7.87126 86.104 7.97975 86.4816 8.19674C86.8635 8.40938 87.1542 8.6524 87.3538 8.9258C87.5578 9.19485 87.7162 9.41618 87.829 9.58976H87.9592V4.6686H89.4955V18H88.0113V16.4638H87.829C87.7162 16.646 87.5556 16.876 87.3473 17.1538C87.139 17.4272 86.8418 17.6724 86.4555 17.8893C86.0693 18.102 85.5551 18.2083 84.9128 18.2083ZM85.1211 16.8283C85.7373 16.8283 86.2581 16.6677 86.6834 16.3466C87.1087 16.0211 87.432 15.572 87.6533 14.9991C87.8746 14.422 87.9853 13.7558 87.9853 13.0007C87.9853 12.2543 87.8768 11.6012 87.6598 11.0414C87.4428 10.4772 87.1217 10.0389 86.6964 9.72646C86.2711 9.40967 85.746 9.25127 85.1211 9.25127C84.4701 9.25127 83.9277 9.41835 83.4937 9.7525C83.0641 10.0823 82.7408 10.5315 82.5238 11.1C82.3112 11.6641 82.2048 12.2977 82.2048 13.0007C82.2048 13.7124 82.3133 14.359 82.5303 14.9405C82.7516 15.5177 83.0771 15.9777 83.5067 16.3206C83.9407 16.659 84.4788 16.8283 85.1211 16.8283ZM96.5843 18.2083C95.6816 18.2083 94.8896 17.9935 94.2083 17.5639C93.5313 17.1342 93.0019 16.5332 92.62 15.7607C92.2425 14.9883 92.0537 14.0856 92.0537 13.0528C92.0537 12.0113 92.2425 11.1021 92.62 10.3253C93.0019 9.54854 93.5313 8.94533 94.2083 8.5157C94.8896 8.08608 95.6816 7.87126 96.5843 7.87126C97.4869 7.87126 98.2767 8.08608 98.9537 8.5157C99.635 8.94533 100.164 9.54854 100.542 10.3253C100.924 11.1021 101.115 12.0113 101.115 13.0528C101.115 14.0856 100.924 14.9883 100.542 15.7607C100.164 16.5332 99.635 17.1342 98.9537 17.5639C98.2767 17.9935 97.4869 18.2083 96.5843 18.2083ZM96.5843 16.8283C97.2699 16.8283 97.8341 16.6525 98.2767 16.301C98.7194 15.9495 99.047 15.4873 99.2597 14.9145C99.4723 14.3417 99.5786 13.7211 99.5786 13.0528C99.5786 12.3845 99.4723 11.7618 99.2597 11.1846C99.047 10.6074 98.7194 10.1409 98.2767 9.78505C97.8341 9.4292 97.2699 9.25127 96.5843 9.25127C95.8986 9.25127 95.3345 9.4292 94.8918 9.78505C94.4492 10.1409 94.1215 10.6074 93.9089 11.1846C93.6962 11.7618 93.5899 12.3845 93.5899 13.0528C93.5899 13.7211 93.6962 14.3417 93.9089 14.9145C94.1215 15.4873 94.4492 15.9495 94.8918 16.301C95.3345 16.6525 95.8986 16.8283 96.5843 16.8283Z" fill="black"/>
<path d="M106.547 10.311L111.703 15.4665M116.048 10.311L110.892 15.4665" stroke="#1B203D" stroke-width="1.14567"/>
</svg>
