<svg width="55" height="55" viewBox="0 0 55 55" fill="none" xmlns="http://www.w3.org/2000/svg">
<path d="M22.11 50.6H14.08C11.5225 50.6 9.075 49.5 7.26 47.74C5.5 45.925 4.4 43.4775 4.4 40.92V14.08C4.4 11.5225 5.5 9.075 7.26 7.26C9.075 5.5 11.5225 4.455 14.08 4.455H22.11V50.6ZM14.08 0C10.3458 0 6.76445 1.48342 4.12394 4.12394C1.48342 6.76445 0 10.3458 0 14.08V40.92C0 48.7025 6.2975 55 14.08 55H26.5375V0H14.08ZM8.5525 16.5C8.5525 19.36 10.8625 21.67 13.75 21.67C16.5825 21.67 18.8925 19.36 18.8925 16.5C18.8925 13.64 16.5825 11.33 13.75 11.33C10.8625 11.33 8.5525 13.64 8.5525 16.5ZM42.9275 24.75C45.98 24.75 48.455 27.1975 48.455 30.25C48.455 33.33 45.98 35.75 42.9275 35.75C39.875 35.75 37.345 33.33 37.345 30.25C37.345 27.1975 39.875 24.75 42.9275 24.75ZM40.92 55C44.6542 55 48.2356 53.5166 50.8761 50.8761C53.5166 48.2356 55 44.6542 55 40.92V14.08C55 6.2975 48.7025 0 40.92 0H32.0375V55H40.92Z" fill="#1B203D"/>
</svg>
