<svg width="28" height="32" viewBox="0 0 28 32" fill="none" xmlns="http://www.w3.org/2000/svg">
<path d="M23.0075 2.40434C21.531 0.721483 18.8621 0 15.4477 0H5.53834C5.20052 1.25086e-05 4.87379 0.120534 4.61688 0.339896C4.35997 0.559259 4.18974 0.863072 4.1368 1.19672L0.0107073 27.3654C-0.071306 27.8814 0.32827 28.3487 0.85129 28.3487H6.96901L8.50544 18.6034L8.45775 18.9086C8.56721 18.2198 9.15635 17.7117 9.85399 17.7117H12.7611C18.4722 17.7117 22.944 15.392 24.2503 8.68164C24.2891 8.48318 24.3227 8.29001 24.3517 8.1013C24.1868 8.01399 24.1868 8.01399 24.3517 8.1013C24.7407 5.62109 24.349 3.93282 23.0075 2.40434Z" fill="#27346A"/>
<path d="M10.8463 7.20784C11.0136 7.1282 11.1965 7.08693 11.3817 7.08705H19.1505C20.0705 7.08705 20.9285 7.14691 21.7126 7.27311C21.9321 7.3081 22.1503 7.34986 22.3672 7.39836C22.6745 7.46617 22.9783 7.54917 23.2774 7.64705C23.6628 7.77579 24.0218 7.92572 24.3518 8.1013C24.7407 5.62013 24.349 3.93282 23.0075 2.40434C21.5302 0.721483 18.8621 0 15.4477 0H5.53749C4.83974 0 4.24615 0.507973 4.1368 1.19672L0.0107079 27.3644C-0.0713054 27.8813 0.328271 28.348 0.850443 28.348H6.96901L10.1566 8.13393C10.188 7.93525 10.2671 7.74715 10.3872 7.58583C10.5074 7.4245 10.6649 7.29479 10.8463 7.20784Z" fill="#27346A"/>
<path d="M24.2502 8.68166C22.944 15.3911 18.4722 17.7117 12.7611 17.7117H9.85311C9.15546 17.7117 8.56622 18.2198 8.45782 18.9086L6.5464 31.0257C6.47499 31.4773 6.82423 31.8865 7.28113 31.8865H12.4382C12.7336 31.8865 13.0193 31.781 13.2439 31.5891C13.4685 31.3972 13.6173 31.1314 13.6634 30.8396L13.7137 30.5769L14.6856 24.4168L14.7483 24.0763C14.7944 23.7845 14.9432 23.5188 15.1677 23.3269C15.3923 23.135 15.678 23.0295 15.9734 23.0294H16.7452C21.7409 23.0294 25.6526 20.9999 26.7957 15.1301C27.2729 12.6771 27.026 10.6291 25.7638 9.19059C25.3809 8.75488 24.9055 8.39504 24.3517 8.10132C24.3217 8.29099 24.2891 8.4832 24.2502 8.68166Z" fill="#2790C3"/>
<path d="M22.9846 7.55622C22.7809 7.49674 22.5753 7.44408 22.3681 7.39833C22.1512 7.35064 21.9329 7.30915 21.7136 7.27394C20.9287 7.14689 20.0712 7.08692 19.1504 7.08692H11.3826C11.1972 7.0865 11.0141 7.12812 10.8472 7.20867C10.6656 7.29535 10.5079 7.42499 10.3877 7.58635C10.2675 7.74772 10.1884 7.93596 10.1574 8.13476L8.5063 18.6034L8.45862 18.9086C8.56723 18.2197 9.15637 17.7117 9.85411 17.7117H12.7621C18.4731 17.7117 22.9449 15.392 24.2511 8.68162C24.29 8.48316 24.3227 8.29084 24.3527 8.10128C24.0218 7.92665 23.6638 7.77576 23.2782 7.64787C23.1809 7.61562 23.0831 7.58506 22.9847 7.55622" fill="#1F264F"/>
</svg>
