<svg width="76" height="24" viewBox="0 0 76 24" fill="none" xmlns="http://www.w3.org/2000/svg">
<path d="M0 0V21.7677H9.77681V0H0ZM7.10392 19.9504C6.93324 19.9504 6.76639 19.8996 6.62447 19.8043C6.48255 19.7091 6.37194 19.5737 6.30663 19.4153C6.24131 19.2569 6.22422 19.0826 6.25752 18.9144C6.29082 18.7463 6.37301 18.5918 6.4937 18.4706C6.61439 18.3494 6.76816 18.2668 6.93556 18.2334C7.10296 18.1999 7.27648 18.2171 7.43417 18.2827C7.59186 18.3483 7.72664 18.4594 7.82146 18.602C7.91629 18.7445 7.9669 18.9121 7.9669 19.0836C7.9669 19.3135 7.87598 19.534 7.71414 19.6965C7.5523 19.8591 7.3328 19.9504 7.10392 19.9504ZM8.51607 5.04356H1.24819V3.78267H8.51529L8.51607 5.04356ZM8.51607 2.52178H1.24819V1.26089H8.51529L8.51607 2.52178ZM20.5194 17.3774H26.2543V20.5068H29.5289V21.7677H17.2463V20.5068H20.521V17.3774H20.5194ZM11.2619 0V16.1165H35.5157V0H11.2619ZM34.2604 14.8556H12.5164V1.26089H34.2604V14.8556Z" fill="#1B203D"/>
<path d="M38.2757 19.1457V5.81426H42.7803C43.8261 5.81426 44.681 6.00304 45.345 6.38059C46.0133 6.7538 46.508 7.25937 46.8292 7.89729C47.1503 8.53522 47.3109 9.24692 47.3109 10.0324C47.3109 10.8179 47.1503 11.5317 46.8292 12.174C46.5124 12.8163 46.022 13.3284 45.358 13.7103C44.6941 14.0878 43.8435 14.2766 42.8063 14.2766H39.5776V12.8445H42.7542C43.4703 12.8445 44.0453 12.7208 44.4793 12.4735C44.9132 12.2261 45.2278 11.8919 45.4231 11.471C45.6227 11.0457 45.7226 10.5662 45.7226 10.0324C45.7226 9.49862 45.6227 9.02126 45.4231 8.60032C45.2278 8.17937 44.911 7.84956 44.4727 7.61088C44.0344 7.36786 43.4529 7.24635 42.7282 7.24635H39.8901V19.1457H38.2757ZM60.639 9.98032H59.0247C58.9292 9.51598 58.7621 9.10806 58.5234 8.75654C58.2891 8.40503 58.0027 8.10994 57.6642 7.87126C57.33 7.62824 56.959 7.44597 56.5511 7.32446C56.1431 7.20295 55.7179 7.14219 55.2752 7.14219C54.468 7.14219 53.7368 7.34616 53.0815 7.75409C52.4306 8.16201 51.912 8.76305 51.5258 9.55721C51.1439 10.3514 50.9529 11.3256 50.9529 12.48C50.9529 13.6343 51.1439 14.6086 51.5258 15.4027C51.912 16.1969 52.4306 16.7979 53.0815 17.2058C53.7368 17.6138 54.468 17.8177 55.2752 17.8177C55.7179 17.8177 56.1431 17.757 56.5511 17.6355C56.959 17.514 57.33 17.3339 57.6642 17.0952C58.0027 16.8522 58.2891 16.5549 58.5234 16.2034C58.7621 15.8475 58.9292 15.4396 59.0247 14.9796H60.639C60.5175 15.6609 60.2962 16.2706 59.975 16.8088C59.6539 17.3469 59.2547 17.8047 58.7773 18.1823C58.2999 18.5555 57.764 18.8397 57.1695 19.035C56.5793 19.2303 55.9479 19.3279 55.2752 19.3279C54.1382 19.3279 53.1271 19.0502 52.2418 18.4947C51.3565 17.9392 50.66 17.1494 50.1523 16.1253C49.6445 15.1011 49.3906 13.886 49.3906 12.48C49.3906 11.0739 49.6445 9.85881 50.1523 8.83466C50.66 7.8105 51.3565 7.02069 52.2418 6.46521C53.1271 5.90973 54.1382 5.632 55.2752 5.632C55.9479 5.632 56.5793 5.72964 57.1695 5.92492C57.764 6.12021 58.2999 6.40662 58.7773 6.78417C59.2547 7.15738 59.6539 7.61305 59.975 8.15116C60.2962 8.68494 60.5175 9.29466 60.639 9.98032Z" fill="black"/>
<path d="M65.303 10.311L70.4585 15.4665M74.8039 10.311L69.6484 15.4665" stroke="#1B203D" stroke-width="1.14567"/>
</svg>
