<svg width="32" height="32" viewBox="0 0 32 32" fill="none" xmlns="http://www.w3.org/2000/svg">
<path d="M1.85315 7.3681V24.6319H9.6419V7.3681H1.85315ZM7.51252 23.1906C7.37655 23.1906 7.24363 23.1503 7.13057 23.0747C7.01751 22.9992 6.92939 22.8918 6.87736 22.7662C6.82532 22.6406 6.81171 22.5023 6.83823 22.369C6.86476 22.2356 6.93024 22.1131 7.02639 22.017C7.12254 21.9208 7.24504 21.8553 7.3784 21.8288C7.51176 21.8023 7.64999 21.8159 7.77562 21.8679C7.90124 21.92 8.00862 22.0081 8.08416 22.1211C8.1597 22.2342 8.20002 22.3671 8.20002 22.5031C8.20002 22.6854 8.12759 22.8603 7.99866 22.9892C7.86973 23.1182 7.69486 23.1906 7.51252 23.1906ZM8.63752 11.3681H2.84752V10.3681H8.6369V11.3681H8.63752ZM8.63752 9.3681H2.84752V8.3681H8.6369V9.3681H8.63752ZM18.2 21.15H22.7688V23.6319H25.3775V24.6319H15.5925V23.6319H18.2013V21.15H18.2ZM10.825 7.3681V20.15H30.1469V7.3681H10.8244H10.825ZM29.1469 19.15H11.8244V8.3681H29.1469V19.15Z" fill="#1B203D"/>
</svg>
