<svg width="38" height="38" viewBox="0 0 38 38" fill="none" xmlns="http://www.w3.org/2000/svg">
<path d="M19 0C15.2422 0 11.5687 1.11433 8.44417 3.20208C5.31964 5.28982 2.88436 8.25722 1.4463 11.729C0.0082324 15.2008 -0.368031 19.0211 0.365088 22.7067C1.09821 26.3924 2.90778 29.7778 5.56498 32.435C8.22218 35.0922 11.6077 36.9018 15.2933 37.6349C18.9789 38.368 22.7992 37.9918 26.271 36.5537C29.7428 35.1156 32.7102 32.6804 34.7979 29.5558C36.8857 26.4313 38 22.7578 38 19C37.9947 13.9625 35.9912 9.13288 32.4292 5.57085C28.8671 2.00881 24.0375 0.00531967 19 0ZM9.14924 31.6971C10.2065 30.0435 11.6631 28.6827 13.3846 27.7401C15.1062 26.7975 17.0373 26.3034 19 26.3034C20.9627 26.3034 22.8938 26.7975 24.6154 27.7401C26.3369 28.6827 27.7935 30.0435 28.8508 31.6971C26.0343 33.8876 22.568 35.0768 19 35.0768C15.432 35.0768 11.9657 33.8876 9.14924 31.6971ZM13.1539 17.5385C13.1539 16.3822 13.4967 15.2519 14.1391 14.2905C14.7815 13.3291 15.6945 12.5798 16.7628 12.1373C17.831 11.6948 19.0065 11.5791 20.1405 11.8046C21.2746 12.0302 22.3163 12.587 23.1339 13.4046C23.9515 14.2222 24.5083 15.2639 24.7338 16.3979C24.9594 17.532 24.8436 18.7074 24.4011 19.7757C23.9587 20.8439 23.2093 21.757 22.248 22.3994C21.2866 23.0417 20.1563 23.3846 19 23.3846C17.4495 23.3846 15.9625 22.7687 14.8661 21.6723C13.7698 20.5759 13.1539 19.089 13.1539 17.5385ZM31.0138 29.6711C29.3838 27.309 27.0918 25.4816 24.426 24.4186C25.8579 23.2908 26.9029 21.7447 27.4154 19.9955C27.928 18.2462 27.8827 16.3807 27.2859 14.6584C26.689 12.9361 25.5703 11.4425 24.0853 10.3855C22.6003 9.32844 20.8228 8.76042 19 8.76042C17.1772 8.76042 15.3997 9.32844 13.9147 10.3855C12.4297 11.4425 11.311 12.9361 10.7142 14.6584C10.1173 16.3807 10.072 18.2462 10.5846 19.9955C11.0972 21.7447 12.1421 23.2908 13.574 24.4186C10.9082 25.4816 8.6162 27.309 6.98616 29.6711C4.92643 27.3548 3.58018 24.4925 3.10951 21.4289C2.63885 18.3652 3.06384 15.2309 4.33332 12.4032C5.60279 9.57546 7.66262 7.17502 10.2648 5.49088C12.8669 3.80675 15.9004 2.91074 19 2.91074C22.0996 2.91074 25.1331 3.80675 27.7352 5.49088C30.3374 7.17502 32.3972 9.57546 33.6667 12.4032C34.9362 15.2309 35.3612 18.3652 34.8905 21.4289C34.4198 24.4925 33.0736 27.3548 31.0138 29.6711Z" fill="#1B203D"/>
</svg>
