<svg width="55" height="55" viewBox="0 0 55 55" fill="none" xmlns="http://www.w3.org/2000/svg">
<rect width="55" height="55" fill="#1B203D"/>
<path d="M27.3811 29.4135V25.3423C27.3811 24.5096 27.7661 23.9161 28.5936 23.9161H33.6959C33.7214 23.9161 33.756 23.8892 33.756 23.856V23.0425C33.756 23.0361 33.756 23.031 33.7496 23.0233H27.5077C26.1557 23.196 25.4957 24.1425 25.4957 25.341V29.4123C25.4957 30.2309 25.0967 30.8308 24.2832 30.8308H18.9072C18.8727 30.8308 18.8471 30.8499 18.8471 30.8909V31.7031C18.8471 31.7376 18.8612 31.7645 18.8791 31.7696H24.9943C26.5868 31.7235 27.3734 30.7105 27.3734 29.4059L27.3811 29.4135ZM6.43504 31.7773H8.22701C8.2418 31.772 8.25445 31.762 8.263 31.7488C8.27155 31.7356 8.27553 31.72 8.27434 31.7044V29.1142C8.27434 28.2816 8.73992 27.7085 9.4255 27.7085H16.8019C18.4596 27.7085 19.2667 26.6891 19.2667 25.3499C19.2667 24.1438 18.6067 23.2049 17.2547 23.0323H6.40946C6.40946 23.0374 6.39539 23.0438 6.39539 23.0515V23.8649C6.39539 23.9046 6.41585 23.9251 6.4555 23.9251H16.1752C17.0027 23.9251 17.3877 24.5185 17.3877 25.3435C17.3877 26.1685 17.0027 26.7697 16.1752 26.7697H8.48922C7.29585 26.7697 6.39666 27.7827 6.39666 29.1142V31.7044C6.39666 31.7389 6.41713 31.7658 6.44271 31.7709L6.43504 31.7773ZM33.7214 30.8397H43.5153C43.5409 30.8397 43.5677 30.8589 43.5677 30.8794V31.7044C43.5677 31.7453 43.5933 31.7658 43.6202 31.7658H45.3853C45.4198 31.7658 45.4518 31.7453 45.4518 31.7044V30.8922C45.4518 30.8576 45.4863 30.832 45.5183 30.832H47.2719C47.3116 30.832 47.332 30.7975 47.332 30.7719V29.9444C47.332 29.9124 47.3179 29.8779 47.2719 29.8779H45.5183C45.4863 29.8779 45.4518 29.8523 45.4518 29.8254V23.9161C45.4518 23.4365 45.2791 23.1295 44.9721 23.0246H44.4656C44.2846 23.0787 44.1107 23.1543 43.9476 23.2497L33.4081 29.7589C32.9949 30.0185 32.8555 30.3051 32.954 30.5174C33.0346 30.6977 33.275 30.8308 33.7265 30.8308L33.7214 30.8397ZM35.255 29.7538L43.4219 24.6976C43.4743 24.658 43.5754 24.6708 43.5754 24.7846V29.8344C43.5754 29.8663 43.5485 29.8945 43.5229 29.8945H35.3011C35.2346 29.8945 35.2026 29.874 35.1949 29.8548C35.1809 29.8139 35.2013 29.7819 35.255 29.7538Z" fill="#BAC5CF"/>
</svg>
