<svg width="55" height="55" viewBox="0 0 55 55" fill="none" xmlns="http://www.w3.org/2000/svg">
<rect width="55" height="55" fill="#1B203D"/>
<path d="M24.2175 31.7977C24.5274 31.7977 24.8342 31.7367 25.1205 31.618C25.4067 31.4994 25.6668 31.3255 25.8859 31.1063C26.1049 30.8871 26.2786 30.6269 26.397 30.3405C26.5155 30.0542 26.5763 29.7473 26.5761 29.4374V25.3819C26.5761 25.1952 26.6129 25.0103 26.6844 24.8379C26.7559 24.6654 26.8607 24.5087 26.9928 24.3768C27.1249 24.2448 27.2817 24.1402 27.4542 24.0689C27.6268 23.9977 27.8117 23.9611 27.9984 23.9613H32.5758C32.5841 23.9611 32.5922 23.9592 32.5998 23.9559C32.6074 23.9525 32.6142 23.9476 32.6199 23.9416C32.6256 23.9356 32.6301 23.9285 32.633 23.9208C32.636 23.913 32.6374 23.9048 32.6372 23.8965V23.0847C32.6372 23.0684 32.6307 23.0528 32.6192 23.0413C32.6077 23.0298 32.5921 23.0233 32.5758 23.0233H27.0604C26.7505 23.0231 26.4437 23.0839 26.1573 23.2024C25.8709 23.3208 25.6107 23.4945 25.3915 23.7135C25.1723 23.9326 24.9984 24.1927 24.8798 24.4789C24.7612 24.7652 24.7001 25.072 24.7001 25.3819V29.4408C24.7001 29.8178 24.5505 30.1793 24.2841 30.446C24.0178 30.7127 23.6564 30.8627 23.2795 30.8632H18.7652C18.757 30.8632 18.7489 30.8648 18.7413 30.868C18.7338 30.8712 18.7269 30.8759 18.7212 30.8817C18.7155 30.8876 18.711 30.8946 18.708 30.9022C18.705 30.9099 18.7036 30.9181 18.7038 30.9263V31.738C18.7038 31.7543 18.7103 31.7699 18.7218 31.7815C18.7333 31.793 18.7489 31.7994 18.7652 31.7994L24.2175 31.7977ZM34.5268 26.3182V23.0847C34.5268 23.0684 34.5332 23.0528 34.5448 23.0413C34.5563 23.0298 34.5719 23.0233 34.5882 23.0233H47.0514C47.0679 23.0233 47.0837 23.0297 47.0955 23.0412C47.1072 23.0527 47.1141 23.0683 47.1145 23.0847V23.8965C47.1145 23.9134 47.1079 23.9296 47.0962 23.9417C47.0844 23.9538 47.0683 23.9609 47.0514 23.9613H36.4607C36.4527 23.9613 36.4447 23.9629 36.4372 23.966C36.4298 23.9691 36.423 23.9736 36.4173 23.9793C36.4116 23.985 36.4071 23.9918 36.404 23.9992C36.4009 24.0067 36.3993 24.0146 36.3993 24.0227V26.1306C36.3989 26.2196 36.4161 26.3079 36.45 26.3902C36.4838 26.4726 36.5337 26.5474 36.5966 26.6104C36.6596 26.6733 36.7344 26.7232 36.8168 26.757C36.8991 26.7909 36.9874 26.8081 37.0764 26.8077H44.9589C45.5952 26.8449 46.1932 27.1239 46.6305 27.5875C47.0678 28.0512 47.3114 28.6645 47.3114 29.3018C47.3114 29.9392 47.0678 30.5525 46.6305 31.0162C46.1932 31.4798 45.5952 31.7588 44.9589 31.796H34.5899C34.5817 31.7963 34.5735 31.7948 34.5659 31.7919C34.5582 31.7889 34.5512 31.7844 34.5454 31.7787C34.5395 31.7729 34.5348 31.7661 34.5316 31.7585C34.5284 31.751 34.5268 31.7428 34.5268 31.7346V30.9263C34.5266 30.9181 34.528 30.9099 34.531 30.9022C34.5339 30.8946 34.5384 30.8876 34.5441 30.8817C34.5499 30.8759 34.5567 30.8712 34.5643 30.868C34.5718 30.8648 34.58 30.8632 34.5882 30.8632H44.0192C44.2303 30.8722 44.441 30.8383 44.6386 30.7636C44.8362 30.6888 45.0166 30.5748 45.1689 30.4283C45.3211 30.2819 45.4421 30.1061 45.5245 29.9115C45.6069 29.7169 45.6489 29.5077 45.6481 29.2964C45.6473 29.0852 45.6036 28.8763 45.5198 28.6823C45.4359 28.4884 45.3136 28.3135 45.1602 28.1683C45.0068 28.023 44.8256 27.9103 44.6274 27.8371C44.4292 27.7639 44.2182 27.7316 44.0072 27.7422H35.9474C35.7605 27.7422 35.5755 27.7054 35.403 27.6338C35.2304 27.5622 35.0736 27.4572 34.9417 27.3249C34.8097 27.1927 34.7051 27.0356 34.6339 26.8629C34.5627 26.6901 34.5263 26.505 34.5268 26.3182ZM16.0297 26.8077C16.4074 26.8077 16.7696 26.6576 17.0367 26.3906C17.3037 26.1235 17.4538 25.7613 17.4538 25.3836C17.4538 25.0059 17.3037 24.6437 17.0367 24.3767C16.7696 24.1096 16.4074 23.9596 16.0297 23.9596H6.45887C6.44243 23.9596 6.42663 23.9532 6.41484 23.9417C6.40306 23.9303 6.39621 23.9146 6.39577 23.8982V23.0864C6.39577 23.0782 6.39741 23.0701 6.4006 23.0625C6.40379 23.055 6.40847 23.0481 6.41435 23.0424C6.42023 23.0367 6.4272 23.0322 6.43485 23.0292C6.4425 23.0262 6.45067 23.0248 6.45887 23.025H16.9507C17.5654 23.0416 18.1495 23.2974 18.5785 23.7381C19.0075 24.1788 19.2475 24.7695 19.2475 25.3845C19.2475 25.9995 19.0075 26.5902 18.5785 27.0309C18.1495 27.4716 17.5654 27.7274 16.9507 27.7439H9.69236C9.50566 27.7439 9.32079 27.7807 9.14832 27.8522C8.97585 27.9237 8.81916 28.0285 8.68723 28.1606C8.55529 28.2927 8.45068 28.4495 8.37939 28.6221C8.30809 28.7946 8.27151 28.9796 8.27174 29.1663V31.7466C8.27174 31.7548 8.2701 31.7629 8.26691 31.7705C8.26372 31.778 8.25904 31.7849 8.25316 31.7906C8.24727 31.7963 8.2403 31.8008 8.23266 31.8038C8.22501 31.8068 8.21684 31.8082 8.20864 31.808H6.45887C6.45006 31.8083 6.44129 31.8067 6.43315 31.8033C6.42501 31.7999 6.4177 31.7948 6.41171 31.7883C6.40572 31.7818 6.4012 31.7741 6.39845 31.7658C6.3957 31.7574 6.39479 31.7485 6.39577 31.7398V29.1594C6.39803 28.5351 6.64775 27.9371 7.0902 27.4966C7.53265 27.056 8.13172 26.8089 8.75608 26.8094L16.0297 26.8077Z" fill="#BAC5CF"/>
</svg>
