<svg width="63" height="12" viewBox="0 0 63 12" fill="none" xmlns="http://www.w3.org/2000/svg">
<path d="M5.5 9.61687L8.16742 11.3017C8.65591 11.6104 9.25367 11.154 9.12512 10.5767L8.41809 7.40853L10.777 5.27403C11.2076 4.88472 10.9762 4.14636 10.4106 4.09938L7.30613 3.82418L6.09133 0.8305C5.8728 0.286806 5.1272 0.286806 4.90867 0.8305L3.69387 3.81746L0.589376 4.09267C0.0237545 4.13965 -0.207636 4.878 0.223007 5.26731L2.58191 7.40182L1.87488 10.57C1.74633 11.1473 2.34409 11.6037 2.83258 11.2949L5.5 9.61687Z" fill="#1B203D"/>
<path d="M18.5 9.61687L21.1674 11.3017C21.6559 11.6104 22.2537 11.154 22.1251 10.5767L21.4181 7.40853L23.777 5.27403C24.2076 4.88472 23.9762 4.14636 23.4106 4.09938L20.3061 3.82418L19.0913 0.8305C18.8728 0.286806 18.1272 0.286806 17.9087 0.8305L16.6939 3.81746L13.5894 4.09267C13.0238 4.13965 12.7924 4.878 13.223 5.26731L15.5819 7.40182L14.8749 10.57C14.7463 11.1473 15.3441 11.6037 15.8326 11.2949L18.5 9.61687Z" fill="#1B203D"/>
<path d="M31.5 9.61687L34.1674 11.3017C34.6559 11.6104 35.2537 11.154 35.1251 10.5767L34.4181 7.40853L36.777 5.27403C37.2076 4.88472 36.9762 4.14636 36.4106 4.09938L33.3061 3.82418L32.0913 0.8305C31.8728 0.286806 31.1272 0.286806 30.9087 0.8305L29.6939 3.81746L26.5894 4.09267C26.0238 4.13965 25.7924 4.878 26.223 5.26731L28.5819 7.40182L27.8749 10.57C27.7463 11.1473 28.3441 11.6037 28.8326 11.2949L31.5 9.61687Z" fill="#1B203D"/>
<path d="M44.5 9.61687L47.1674 11.3017C47.6559 11.6104 48.2537 11.154 48.1251 10.5767L47.4181 7.40853L49.777 5.27403C50.2076 4.88472 49.9762 4.14636 49.4106 4.09938L46.3061 3.82418L45.0913 0.8305C44.8728 0.286806 44.1272 0.286806 43.9087 0.8305L42.6939 3.81746L39.5894 4.09267C39.0238 4.13965 38.7924 4.878 39.223 5.26731L41.5819 7.40182L40.8749 10.57C40.7463 11.1473 41.3441 11.6037 41.8326 11.2949L44.5 9.61687Z" fill="#1B203D"/>
<path d="M57.5 9.61687L60.1674 11.3017C60.6559 11.6104 61.2537 11.154 61.1251 10.5767L60.4181 7.40853L62.777 5.27403C63.2076 4.88472 62.9762 4.14636 62.4106 4.09938L59.3061 3.82418L58.0913 0.8305C57.8728 0.286806 57.1272 0.286806 56.9087 0.8305L55.6939 3.81746L52.5894 4.09267C52.0238 4.13965 51.7924 4.878 52.223 5.26731L54.5819 7.40182L53.8749 10.57C53.7463 11.1473 54.3441 11.6037 54.8326 11.2949L57.5 9.61687Z" fill="#1B203D"/>
</svg>
