<svg width="63" height="12" viewBox="0 0 63 12" fill="none" xmlns="http://www.w3.org/2000/svg">
<path d="M5.50012 10.1945L8.16754 11.8826C8.65603 12.192 9.25379 11.7347 9.12524 11.1563L8.41822 7.98186L10.7771 5.84317C11.2078 5.4531 10.9764 4.7133 10.4107 4.66622L7.30625 4.39048L6.09145 1.39093C5.87292 0.846171 5.12733 0.846171 4.90879 1.39093L3.69399 4.38375L0.589498 4.65949C0.0238765 4.70657 -0.207514 5.44637 0.22313 5.83645L2.58203 7.97513L1.875 11.1495C1.74645 11.7279 2.34421 12.1853 2.8327 11.8759L5.50012 10.1945Z" fill="#1B203D"/>
<path d="M18.5001 10.1945L21.1675 11.8826C21.656 12.192 22.2538 11.7347 22.1252 11.1563L21.4182 7.98186L23.7771 5.84317C24.2078 5.4531 23.9764 4.7133 23.4107 4.66622L20.3063 4.39048L19.0915 1.39093C18.8729 0.846171 18.1273 0.846171 17.9088 1.39093L16.694 4.38375L13.5895 4.65949C13.0239 4.70657 12.7925 5.44637 13.2231 5.83645L15.582 7.97513L14.875 11.1495C14.7465 11.7279 15.3442 12.1853 15.8327 11.8759L18.5001 10.1945Z" fill="#1B203D"/>
<path d="M62.4154 4.66397L59.305 4.38167L58.0904 1.39068C57.8719 0.846254 57.1264 0.846254 56.908 1.39068L55.6934 4.38839L52.5894 4.66397C52.0239 4.71102 51.7925 5.45036 52.2231 5.8402L54.5816 7.97758L53.8747 11.1501C53.7462 11.7281 54.3438 12.1851 54.8322 11.876L57.4992 10.1956L60.1661 11.8827C60.6546 12.1919 61.2522 11.7348 61.1237 11.1568L60.4168 7.97758L62.7753 5.8402C63.2058 5.45036 62.9809 4.71102 62.4154 4.66397ZM57.4992 8.93873L55.0828 10.4645L55.7255 7.58775L53.5919 5.652L56.4067 5.39659L57.4992 2.6879L58.5981 5.40331L61.4129 5.65873L59.2793 7.59447L59.9219 10.4712L57.4992 8.93873Z" fill="#1B203D"/>
<path d="M48.4154 4.66397L45.305 4.38167L44.0904 1.39068C43.8719 0.846254 43.1264 0.846254 42.908 1.39068L41.6934 4.38839L38.5894 4.66397C38.0239 4.71102 37.7925 5.45036 38.2231 5.8402L40.5816 7.97758L39.8747 11.1501C39.7462 11.7281 40.3438 12.1851 40.8322 11.876L43.4992 10.1956L46.1661 11.8827C46.6546 12.1919 47.2522 11.7348 47.1237 11.1568L46.4168 7.97758L48.7753 5.8402C49.2058 5.45036 48.9809 4.71102 48.4154 4.66397ZM43.4992 8.93873L41.0828 10.4645L41.7255 7.58775L39.5919 5.652L42.4067 5.39659L43.4992 2.6879L44.5981 5.40331L47.4129 5.65873L45.2793 7.59447L45.9219 10.4712L43.4992 8.93873Z" fill="#1B203D"/>
<path d="M36.4154 4.66397L33.305 4.38167L32.0904 1.39068C31.8719 0.846254 31.1264 0.846254 30.908 1.39068L29.6934 4.38839L26.5894 4.66397C26.0239 4.71102 25.7925 5.45036 26.2231 5.8402L28.5816 7.97758L27.8747 11.1501C27.7462 11.7281 28.3438 12.1851 28.8322 11.876L31.4992 10.1956L34.1661 11.8827C34.6546 12.1919 35.2522 11.7348 35.1237 11.1568L34.4168 7.97758L36.7753 5.8402C37.2058 5.45036 36.9809 4.71102 36.4154 4.66397ZM31.4992 8.93873V2.6879L32.5981 5.40331L35.4129 5.65873L33.2793 7.59447L33.9219 10.4712L31.4992 8.93873Z" fill="#1B203D"/>
</svg>
