<svg width="63" height="11" viewBox="0 0 63 11" fill="none" xmlns="http://www.w3.org/2000/svg">
<path d="M5.5 9.19414L8.16742 10.8789C8.65591 11.1877 9.25367 10.7313 9.12512 10.154L8.41809 6.9858L10.777 4.8513C11.2076 4.46199 10.9762 3.72364 10.4106 3.67665L7.30613 3.40145L6.09133 0.407771C5.8728 -0.135924 5.1272 -0.135924 4.90867 0.407771L3.69387 3.39473L0.589376 3.66994C0.0237545 3.71692 -0.207636 4.45527 0.223007 4.84458L2.58191 6.97909L1.87488 10.1473C1.74633 10.7245 2.34409 11.181 2.83258 10.8722L5.5 9.19414Z" fill="#1B203D"/>
<path d="M18.5 9.19414L21.1674 10.8789C21.6559 11.1877 22.2537 10.7313 22.1251 10.154L21.4181 6.9858L23.777 4.8513C24.2076 4.46199 23.9762 3.72364 23.4106 3.67665L20.3061 3.40145L19.0913 0.407771C18.8728 -0.135924 18.1272 -0.135924 17.9087 0.407771L16.6939 3.39473L13.5894 3.66994C13.0238 3.71692 12.7924 4.45527 13.223 4.84458L15.5819 6.97909L14.8749 10.1473C14.7463 10.7245 15.3441 11.181 15.8326 10.8722L18.5 9.19414Z" fill="#1B203D"/>
<path d="M31.5 9.19414L34.1674 10.8789C34.6559 11.1877 35.2537 10.7313 35.1251 10.154L34.4181 6.9858L36.777 4.8513C37.2076 4.46199 36.9762 3.72364 36.4106 3.67665L33.3061 3.40145L32.0913 0.407771C31.8728 -0.135924 31.1272 -0.135924 30.9087 0.407771L29.6939 3.39473L26.5894 3.66994C26.0238 3.71692 25.7924 4.45527 26.223 4.84458L28.5819 6.97909L27.8749 10.1473C27.7463 10.7245 28.3441 11.181 28.8326 10.8722L31.5 9.19414Z" fill="#1B203D"/>
<path d="M44.5 9.19414L47.1674 10.8789C47.6559 11.1877 48.2537 10.7313 48.1251 10.154L47.4181 6.9858L49.777 4.8513C50.2076 4.46199 49.9762 3.72364 49.4106 3.67665L46.3061 3.40145L45.0913 0.407771C44.8728 -0.135924 44.1272 -0.135924 43.9087 0.407771L42.6939 3.39473L39.5894 3.66994C39.0238 3.71692 38.7924 4.45527 39.223 4.84458L41.5819 6.97909L40.8749 10.1473C40.7463 10.7245 41.3441 11.181 41.8326 10.8722L44.5 9.19414Z" fill="#1B203D"/>
<path d="M62.4153 3.6744L59.3049 3.39266L58.0903 0.407522C57.8718 -0.135841 57.1263 -0.135841 56.9078 0.407522L55.6932 3.39937L52.5893 3.6744C52.0238 3.72136 51.7924 4.45926 52.223 4.84833L54.5815 6.98153L53.8746 10.1478C53.746 10.7247 54.3437 11.1809 54.8321 10.8723L57.4991 9.19523L60.166 10.879C60.6544 11.1876 61.2521 10.7314 61.1236 10.1545L60.4167 6.98153L62.7751 4.84833C63.2057 4.45926 62.9808 3.72136 62.4153 3.6744ZM57.4991 7.9408L55.0827 9.46356L55.7254 6.59246L53.5918 4.6605L56.4066 4.40559L57.4991 1.7022L58.598 4.4123L61.4127 4.66721L59.2792 6.59917L59.9218 9.47027L57.4991 7.9408Z" fill="#1B203D"/>
</svg>
