<svg width="63" height="12" viewBox="0 0 63 12" fill="none" xmlns="http://www.w3.org/2000/svg">
<path d="M5.5 9.61687L8.16742 11.3017C8.65591 11.6104 9.25367 11.154 9.12512 10.5767L8.41809 7.40853L10.777 5.27403C11.2076 4.88472 10.9762 4.14636 10.4106 4.09938L7.30613 3.82418L6.09133 0.8305C5.8728 0.286806 5.1272 0.286806 4.90867 0.8305L3.69387 3.81746L0.589376 4.09267C0.0237545 4.13965 -0.207636 4.878 0.223007 5.26731L2.58191 7.40182L1.87488 10.57C1.74633 11.1473 2.34409 11.6037 2.83258 11.2949L5.5 9.61687Z" fill="#1B203D"/>
<path d="M18.5 9.61687L21.1674 11.3017C21.6559 11.6104 22.2537 11.154 22.1251 10.5767L21.4181 7.40853L23.777 5.27403C24.2076 4.88472 23.9762 4.14636 23.4106 4.09938L20.3061 3.82418L19.0913 0.8305C18.8728 0.286806 18.1272 0.286806 17.9087 0.8305L16.6939 3.81746L13.5894 4.09267C13.0238 4.13965 12.7924 4.878 13.223 5.26731L15.5819 7.40182L14.8749 10.57C14.7463 11.1473 15.3441 11.6037 15.8326 11.2949L18.5 9.61687Z" fill="#1B203D"/>
<path d="M31.5 9.61687L34.1674 11.3017C34.6559 11.6104 35.2537 11.154 35.1251 10.5767L34.4181 7.40853L36.777 5.27403C37.2076 4.88472 36.9762 4.14636 36.4106 4.09938L33.3061 3.82418L32.0913 0.8305C31.8728 0.286806 31.1272 0.286806 30.9087 0.8305L29.6939 3.81746L26.5894 4.09267C26.0238 4.13965 25.7924 4.878 26.223 5.26731L28.5819 7.40182L27.8749 10.57C27.7463 11.1473 28.3441 11.6037 28.8326 11.2949L31.5 9.61687Z" fill="#1B203D"/>
<path d="M62.4153 4.09713L59.3049 3.81539L58.0903 0.830251C57.8718 0.286889 57.1263 0.286889 56.9078 0.830251L55.6932 3.8221L52.5893 4.09713C52.0238 4.14409 51.7924 4.88199 52.223 5.27106L54.5815 7.40426L53.8746 10.5705C53.746 11.1474 54.3437 11.6036 54.8321 11.295L57.4991 9.61796L60.166 11.3017C60.6544 11.6103 61.2521 11.1541 61.1236 10.5772L60.4167 7.40426L62.7751 5.27106C63.2057 4.88199 62.9808 4.14409 62.4153 4.09713ZM57.4991 8.36353L55.0827 9.88629L55.7254 7.01519L53.5918 5.08323L56.4066 4.82832L57.4991 2.12493L58.598 4.83503L61.4127 5.08994L59.2792 7.0219L59.9218 9.89299L57.4991 8.36353Z" fill="#1B203D"/>
<path d="M49.4153 4.09713L46.3049 3.81539L45.0903 0.830251C44.8718 0.286889 44.1263 0.286889 43.9078 0.830251L42.6932 3.8221L39.5893 4.09713C39.0238 4.14409 38.7924 4.88199 39.223 5.27106L41.5815 7.40426L40.8746 10.5705C40.746 11.1474 41.3437 11.6036 41.8321 11.295L44.4991 9.61796L47.166 11.3017C47.6544 11.6103 48.2521 11.1541 48.1236 10.5772L47.4167 7.40426L49.7751 5.27106C50.2057 4.88199 49.9808 4.14409 49.4153 4.09713ZM44.4991 8.36353V2.12493L45.598 4.83503L48.4127 5.08994L46.2792 7.0219L46.9218 9.89299L44.4991 8.36353Z" fill="#1B203D"/>
</svg>
