<svg width="142" height="67" viewBox="0 0 142 67" fill="none" xmlns="http://www.w3.org/2000/svg">
<rect x="4" y="41.6787" width="24.6429" height="24.6429" fill="#4ECB71"/>
<rect x="32.3394" y="41.6787" width="24.6429" height="24.6429" fill="#4ECB71"/>
<rect x="60.6787" y="41.6787" width="24.6429" height="24.6429" fill="#4ECB71"/>
<rect x="89.0178" y="41.6787" width="24.6429" height="24.6429" fill="#4ECB71"/>
<rect x="117.357" y="41.6787" width="24.6429" height="24.6429" fill="#4ECB71"/>
<g clip-path="url(#clip0_82_1091)">
<path d="M22.9693 22.2266L25.8893 31.2159L16.0053 24.0319L22.9693 22.2266ZM32 12.4133H19.78L16.0067 0.785278L12.22 12.4159L0 12.3999L9.896 19.5959L6.10933 31.2146L16.0053 24.0319L22.116 19.5959L32 12.4133Z" fill="#4ECB71"/>
<path d="M22.9693 22.2266L25.8893 31.2159L16.0053 24.0319L22.9693 22.2266ZM32 12.4133H19.78L16.0067 0.785278L12.22 12.4159L0 12.3999L9.896 19.5959L6.10933 31.2146L16.0053 24.0319L22.116 19.5959L32 12.4133Z" fill="#4ECB71"/>
</g>
<g clip-path="url(#clip1_82_1091)">
<rect width="19.7143" height="19.7143" transform="translate(6.46436 44.1428)" fill="#4ECB71"/>
<path d="M20.6151 57.8361L22.414 63.3742L16.3248 58.9483L20.6151 57.8361ZM26.1786 51.7904H18.6502L16.3256 44.6267L13.9927 51.792L6.46436 51.7822L12.561 56.2154L10.2281 63.3734L16.3248 58.9483L20.0894 56.2154L26.1786 51.7904Z" fill="white"/>
</g>
<g clip-path="url(#clip2_82_1091)">
<rect width="19.7143" height="19.7143" transform="translate(34.8037 44.1428)" fill="#4ECB71"/>
<path d="M48.9545 57.8361L50.7534 63.3742L44.6641 58.9483L48.9545 57.8361ZM54.518 51.7904H46.9896L44.665 44.6267L42.3321 51.792L34.8037 51.7822L40.9004 56.2154L38.5675 63.3734L44.6641 58.9483L48.4287 56.2154L54.518 51.7904Z" fill="white"/>
</g>
<g clip-path="url(#clip3_82_1091)">
<rect width="19.7143" height="19.7143" transform="translate(63.1428 44.1428)" fill="#4ECB71"/>
<path d="M77.2936 57.8361L79.0925 63.3742L73.0033 58.9483L77.2936 57.8361ZM82.8571 51.7904H75.3287L73.0041 44.6267L70.6712 51.792L63.1428 51.7822L69.2395 56.2154L66.9066 63.3734L73.0033 58.9483L76.7679 56.2154L82.8571 51.7904Z" fill="white"/>
</g>
<g clip-path="url(#clip4_82_1091)">
<rect width="19.7143" height="19.7143" transform="translate(91.4822 44.1428)" fill="#4ECB71"/>
<path d="M105.633 57.8361L107.432 63.3742L101.343 58.9483L105.633 57.8361ZM111.196 51.7904H103.668L101.343 44.6267L99.0106 51.792L91.4822 51.7822L97.5788 56.2154L95.246 63.3734L101.343 58.9483L105.107 56.2154L111.196 51.7904Z" fill="white"/>
</g>
<g clip-path="url(#clip5_82_1091)">
<rect width="19.7143" height="19.7143" transform="translate(119.821 44.1428)" fill="#4ECB71"/>
<path d="M133.972 57.8361L135.771 63.3742L129.682 58.9483L133.972 57.8361ZM139.536 51.7904H132.007L129.683 44.6267L127.35 51.792L119.821 51.7822L125.918 56.2154L123.585 63.3734L129.682 58.9483L133.446 56.2154L139.536 51.7904Z" fill="white"/>
</g>
<path d="M33.0568 14.8125V12.5455H46.5653V14.8125H41.1193V30H38.4943V14.8125H33.0568ZM47.9865 30V16.9091H50.4496V18.9886H50.5859C50.8246 18.2841 51.245 17.7301 51.8473 17.3267C52.4553 16.9176 53.1428 16.7131 53.9098 16.7131C54.0689 16.7131 54.2564 16.7187 54.4723 16.7301C54.6939 16.7415 54.8672 16.7557 54.9922 16.7727V19.2102C54.8899 19.1818 54.7081 19.1506 54.4467 19.1165C54.1854 19.0767 53.924 19.0568 53.6626 19.0568C53.0604 19.0568 52.5234 19.1847 52.0518 19.4403C51.5859 19.6903 51.2166 20.0398 50.9439 20.4886C50.6712 20.9318 50.5348 21.4375 50.5348 22.0057V30H47.9865ZM65.4901 24.571V16.9091H68.0469V30H65.5412V27.733H65.4048C65.1037 28.4318 64.6207 29.0142 63.956 29.4801C63.2969 29.9403 62.4759 30.1705 61.4929 30.1705C60.652 30.1705 59.9077 29.9858 59.2599 29.6165C58.6179 29.2415 58.1122 28.6875 57.7429 27.9545C57.3793 27.2216 57.1974 26.3153 57.1974 25.2358V16.9091H59.7457V24.929C59.7457 25.821 59.9929 26.5312 60.4872 27.0597C60.9815 27.5881 61.6236 27.8523 62.4134 27.8523C62.8906 27.8523 63.3651 27.733 63.8366 27.4943C64.3139 27.2557 64.7088 26.8949 65.0213 26.4119C65.3395 25.929 65.4957 25.3153 65.4901 24.571ZM81.2805 20.1051L78.9709 20.5142C78.8743 20.2187 78.7209 19.9375 78.5107 19.6705C78.3061 19.4034 78.0277 19.1847 77.6754 19.0142C77.3232 18.8437 76.8828 18.7585 76.3544 18.7585C75.6328 18.7585 75.0305 18.9205 74.5476 19.2443C74.0646 19.5625 73.8232 19.9744 73.8232 20.4801C73.8232 20.9176 73.9851 21.2699 74.3089 21.5369C74.6328 21.804 75.1555 22.0227 75.8771 22.1932L77.9567 22.6705C79.1612 22.9489 80.0589 23.3778 80.6499 23.9574C81.2408 24.5369 81.5362 25.2898 81.5362 26.2159C81.5362 27 81.3089 27.6989 80.8544 28.3125C80.4055 28.9205 79.7777 29.3977 78.9709 29.7443C78.1697 30.0909 77.2408 30.2642 76.1839 30.2642C74.718 30.2642 73.522 29.9517 72.5959 29.3267C71.6697 28.696 71.1016 27.8011 70.8913 26.642L73.3544 26.267C73.5078 26.9091 73.8232 27.3949 74.3004 27.7244C74.7777 28.0483 75.3999 28.2102 76.1669 28.2102C77.0021 28.2102 77.6697 28.0369 78.1697 27.6903C78.6697 27.3381 78.9197 26.9091 78.9197 26.4034C78.9197 25.9943 78.7663 25.6506 78.4595 25.3722C78.1584 25.0937 77.6953 24.8835 77.0703 24.7415L74.8544 24.2557C73.6328 23.9773 72.7294 23.5341 72.1442 22.9261C71.5646 22.3182 71.2749 21.5483 71.2749 20.6165C71.2749 19.8437 71.4908 19.1676 71.9226 18.5881C72.3544 18.0085 72.951 17.5568 73.7124 17.233C74.4737 16.9034 75.3459 16.7386 76.3288 16.7386C77.7436 16.7386 78.8572 17.0455 79.6697 17.6591C80.4822 18.267 81.0192 19.0824 81.2805 20.1051ZM90.4489 16.9091V18.9545H83.2983V16.9091H90.4489ZM85.2159 13.7727H87.7642V26.1562C87.7642 26.6506 87.8381 27.0227 87.9858 27.2727C88.1335 27.517 88.3239 27.6847 88.5568 27.7756C88.7955 27.8608 89.054 27.9034 89.3324 27.9034C89.5369 27.9034 89.7159 27.8892 89.8693 27.8608C90.0227 27.8324 90.142 27.8097 90.2273 27.7926L90.6875 29.8977C90.5398 29.9545 90.3295 30.0114 90.0568 30.0682C89.7841 30.1307 89.4432 30.1648 89.0341 30.1705C88.3636 30.1818 87.7386 30.0625 87.1591 29.8125C86.5795 29.5625 86.1108 29.1761 85.7528 28.6534C85.3949 28.1307 85.2159 27.4744 85.2159 26.6847V13.7727ZM93.2678 34.9091V16.9091H95.7564V19.0312H95.9695C96.1172 18.7585 96.3303 18.4432 96.6087 18.0852C96.8871 17.7273 97.2734 17.4148 97.7678 17.1477C98.2621 16.875 98.9155 16.7386 99.728 16.7386C100.785 16.7386 101.728 17.0057 102.558 17.5398C103.387 18.0739 104.038 18.8437 104.509 19.8494C104.987 20.8551 105.225 22.0653 105.225 23.4801C105.225 24.8949 104.989 26.108 104.518 27.1193C104.046 28.125 103.398 28.9006 102.575 29.446C101.751 29.9858 100.81 30.2557 99.7536 30.2557C98.9581 30.2557 98.3075 30.1222 97.8018 29.8551C97.3018 29.5881 96.9098 29.2756 96.6257 28.9176C96.3416 28.5597 96.1229 28.2415 95.9695 27.9631H95.8161V34.9091H93.2678ZM95.7649 23.4545C95.7649 24.375 95.8984 25.1818 96.1655 25.875C96.4325 26.5682 96.8189 27.1108 97.3246 27.5028C97.8303 27.8892 98.4496 28.0824 99.1825 28.0824C99.9439 28.0824 100.58 27.8807 101.092 27.4773C101.603 27.0682 101.989 26.5142 102.251 25.8153C102.518 25.1165 102.651 24.3295 102.651 23.4545C102.651 22.5909 102.521 21.8153 102.259 21.1278C102.004 20.4403 101.617 19.8977 101.1 19.5C100.589 19.1023 99.9496 18.9034 99.1825 18.9034C98.4439 18.9034 97.8189 19.0937 97.3075 19.4744C96.8018 19.8551 96.4183 20.3864 96.157 21.0682C95.8956 21.75 95.7649 22.5455 95.7649 23.4545ZM108.08 30V16.9091H110.629V30H108.08ZM109.367 14.8892C108.924 14.8892 108.543 14.7415 108.225 14.446C107.913 14.1449 107.756 13.7869 107.756 13.3722C107.756 12.9517 107.913 12.5937 108.225 12.2983C108.543 11.9972 108.924 11.8466 109.367 11.8466C109.81 11.8466 110.188 11.9972 110.501 12.2983C110.819 12.5937 110.978 12.9517 110.978 13.3722C110.978 13.7869 110.819 14.1449 110.501 14.446C110.188 14.7415 109.81 14.8892 109.367 14.8892ZM116.605 12.5455V30H114.057V12.5455H116.605ZM125.548 30.2642C124.32 30.2642 123.249 29.983 122.335 29.4205C121.42 28.858 120.71 28.071 120.204 27.0597C119.698 26.0483 119.445 24.8665 119.445 23.5142C119.445 22.1562 119.698 20.9687 120.204 19.9517C120.71 18.9347 121.42 18.1449 122.335 17.5824C123.249 17.0199 124.32 16.7386 125.548 16.7386C126.775 16.7386 127.846 17.0199 128.761 17.5824C129.675 18.1449 130.386 18.9347 130.891 19.9517C131.397 20.9687 131.65 22.1562 131.65 23.5142C131.65 24.8665 131.397 26.0483 130.891 27.0597C130.386 28.071 129.675 28.858 128.761 29.4205C127.846 29.983 126.775 30.2642 125.548 30.2642ZM125.556 28.125C126.352 28.125 127.011 27.9148 127.533 27.4943C128.056 27.0739 128.442 26.5142 128.692 25.8153C128.948 25.1165 129.076 24.3466 129.076 23.5057C129.076 22.6705 128.948 21.9034 128.692 21.2045C128.442 20.5 128.056 19.9347 127.533 19.5085C127.011 19.0824 126.352 18.8693 125.556 18.8693C124.755 18.8693 124.09 19.0824 123.562 19.5085C123.039 19.9347 122.65 20.5 122.394 21.2045C122.144 21.9034 122.019 22.6705 122.019 23.5057C122.019 24.3466 122.144 25.1165 122.394 25.8153C122.65 26.5142 123.039 27.0739 123.562 27.4943C124.09 27.9148 124.755 28.125 125.556 28.125ZM140.605 16.9091V18.9545H133.455V16.9091H140.605ZM135.372 13.7727H137.92V26.1562C137.92 26.6506 137.994 27.0227 138.142 27.2727C138.29 27.517 138.48 27.6847 138.713 27.7756C138.952 27.8608 139.21 27.9034 139.489 27.9034C139.693 27.9034 139.872 27.8892 140.026 27.8608C140.179 27.8324 140.298 27.8097 140.384 27.7926L140.844 29.8977C140.696 29.9545 140.486 30.0114 140.213 30.0682C139.94 30.1307 139.599 30.1648 139.19 30.1705C138.52 30.1818 137.895 30.0625 137.315 29.8125C136.736 29.5625 136.267 29.1761 135.909 28.6534C135.551 28.1307 135.372 27.4744 135.372 26.6847V13.7727Z" fill="white"/>
<path d="M33.0568 14.8125V12.5455H46.5653V14.8125H41.1193V30H38.4943V14.8125H33.0568ZM47.9865 30V16.9091H50.4496V18.9886H50.5859C50.8246 18.2841 51.245 17.7301 51.8473 17.3267C52.4553 16.9176 53.1428 16.7131 53.9098 16.7131C54.0689 16.7131 54.2564 16.7187 54.4723 16.7301C54.6939 16.7415 54.8672 16.7557 54.9922 16.7727V19.2102C54.8899 19.1818 54.7081 19.1506 54.4467 19.1165C54.1854 19.0767 53.924 19.0568 53.6626 19.0568C53.0604 19.0568 52.5234 19.1847 52.0518 19.4403C51.5859 19.6903 51.2166 20.0398 50.9439 20.4886C50.6712 20.9318 50.5348 21.4375 50.5348 22.0057V30H47.9865ZM65.4901 24.571V16.9091H68.0469V30H65.5412V27.733H65.4048C65.1037 28.4318 64.6207 29.0142 63.956 29.4801C63.2969 29.9403 62.4759 30.1705 61.4929 30.1705C60.652 30.1705 59.9077 29.9858 59.2599 29.6165C58.6179 29.2415 58.1122 28.6875 57.7429 27.9545C57.3793 27.2216 57.1974 26.3153 57.1974 25.2358V16.9091H59.7457V24.929C59.7457 25.821 59.9929 26.5312 60.4872 27.0597C60.9815 27.5881 61.6236 27.8523 62.4134 27.8523C62.8906 27.8523 63.3651 27.733 63.8366 27.4943C64.3139 27.2557 64.7088 26.8949 65.0213 26.4119C65.3395 25.929 65.4957 25.3153 65.4901 24.571ZM81.2805 20.1051L78.9709 20.5142C78.8743 20.2187 78.7209 19.9375 78.5107 19.6705C78.3061 19.4034 78.0277 19.1847 77.6754 19.0142C77.3232 18.8437 76.8828 18.7585 76.3544 18.7585C75.6328 18.7585 75.0305 18.9205 74.5476 19.2443C74.0646 19.5625 73.8232 19.9744 73.8232 20.4801C73.8232 20.9176 73.9851 21.2699 74.3089 21.5369C74.6328 21.804 75.1555 22.0227 75.8771 22.1932L77.9567 22.6705C79.1612 22.9489 80.0589 23.3778 80.6499 23.9574C81.2408 24.5369 81.5362 25.2898 81.5362 26.2159C81.5362 27 81.3089 27.6989 80.8544 28.3125C80.4055 28.9205 79.7777 29.3977 78.9709 29.7443C78.1697 30.0909 77.2408 30.2642 76.1839 30.2642C74.718 30.2642 73.522 29.9517 72.5959 29.3267C71.6697 28.696 71.1016 27.8011 70.8913 26.642L73.3544 26.267C73.5078 26.9091 73.8232 27.3949 74.3004 27.7244C74.7777 28.0483 75.3999 28.2102 76.1669 28.2102C77.0021 28.2102 77.6697 28.0369 78.1697 27.6903C78.6697 27.3381 78.9197 26.9091 78.9197 26.4034C78.9197 25.9943 78.7663 25.6506 78.4595 25.3722C78.1584 25.0937 77.6953 24.8835 77.0703 24.7415L74.8544 24.2557C73.6328 23.9773 72.7294 23.5341 72.1442 22.9261C71.5646 22.3182 71.2749 21.5483 71.2749 20.6165C71.2749 19.8437 71.4908 19.1676 71.9226 18.5881C72.3544 18.0085 72.951 17.5568 73.7124 17.233C74.4737 16.9034 75.3459 16.7386 76.3288 16.7386C77.7436 16.7386 78.8572 17.0455 79.6697 17.6591C80.4822 18.267 81.0192 19.0824 81.2805 20.1051ZM90.4489 16.9091V18.9545H83.2983V16.9091H90.4489ZM85.2159 13.7727H87.7642V26.1562C87.7642 26.6506 87.8381 27.0227 87.9858 27.2727C88.1335 27.517 88.3239 27.6847 88.5568 27.7756C88.7955 27.8608 89.054 27.9034 89.3324 27.9034C89.5369 27.9034 89.7159 27.8892 89.8693 27.8608C90.0227 27.8324 90.142 27.8097 90.2273 27.7926L90.6875 29.8977C90.5398 29.9545 90.3295 30.0114 90.0568 30.0682C89.7841 30.1307 89.4432 30.1648 89.0341 30.1705C88.3636 30.1818 87.7386 30.0625 87.1591 29.8125C86.5795 29.5625 86.1108 29.1761 85.7528 28.6534C85.3949 28.1307 85.2159 27.4744 85.2159 26.6847V13.7727ZM93.2678 34.9091V16.9091H95.7564V19.0312H95.9695C96.1172 18.7585 96.3303 18.4432 96.6087 18.0852C96.8871 17.7273 97.2734 17.4148 97.7678 17.1477C98.2621 16.875 98.9155 16.7386 99.728 16.7386C100.785 16.7386 101.728 17.0057 102.558 17.5398C103.387 18.0739 104.038 18.8437 104.509 19.8494C104.987 20.8551 105.225 22.0653 105.225 23.4801C105.225 24.8949 104.989 26.108 104.518 27.1193C104.046 28.125 103.398 28.9006 102.575 29.446C101.751 29.9858 100.81 30.2557 99.7536 30.2557C98.9581 30.2557 98.3075 30.1222 97.8018 29.8551C97.3018 29.5881 96.9098 29.2756 96.6257 28.9176C96.3416 28.5597 96.1229 28.2415 95.9695 27.9631H95.8161V34.9091H93.2678ZM95.7649 23.4545C95.7649 24.375 95.8984 25.1818 96.1655 25.875C96.4325 26.5682 96.8189 27.1108 97.3246 27.5028C97.8303 27.8892 98.4496 28.0824 99.1825 28.0824C99.9439 28.0824 100.58 27.8807 101.092 27.4773C101.603 27.0682 101.989 26.5142 102.251 25.8153C102.518 25.1165 102.651 24.3295 102.651 23.4545C102.651 22.5909 102.521 21.8153 102.259 21.1278C102.004 20.4403 101.617 19.8977 101.1 19.5C100.589 19.1023 99.9496 18.9034 99.1825 18.9034C98.4439 18.9034 97.8189 19.0937 97.3075 19.4744C96.8018 19.8551 96.4183 20.3864 96.157 21.0682C95.8956 21.75 95.7649 22.5455 95.7649 23.4545ZM108.08 30V16.9091H110.629V30H108.08ZM109.367 14.8892C108.924 14.8892 108.543 14.7415 108.225 14.446C107.913 14.1449 107.756 13.7869 107.756 13.3722C107.756 12.9517 107.913 12.5937 108.225 12.2983C108.543 11.9972 108.924 11.8466 109.367 11.8466C109.81 11.8466 110.188 11.9972 110.501 12.2983C110.819 12.5937 110.978 12.9517 110.978 13.3722C110.978 13.7869 110.819 14.1449 110.501 14.446C110.188 14.7415 109.81 14.8892 109.367 14.8892ZM116.605 12.5455V30H114.057V12.5455H116.605ZM125.548 30.2642C124.32 30.2642 123.249 29.983 122.335 29.4205C121.42 28.858 120.71 28.071 120.204 27.0597C119.698 26.0483 119.445 24.8665 119.445 23.5142C119.445 22.1562 119.698 20.9687 120.204 19.9517C120.71 18.9347 121.42 18.1449 122.335 17.5824C123.249 17.0199 124.32 16.7386 125.548 16.7386C126.775 16.7386 127.846 17.0199 128.761 17.5824C129.675 18.1449 130.386 18.9347 130.891 19.9517C131.397 20.9687 131.65 22.1562 131.65 23.5142C131.65 24.8665 131.397 26.0483 130.891 27.0597C130.386 28.071 129.675 28.858 128.761 29.4205C127.846 29.983 126.775 30.2642 125.548 30.2642ZM125.556 28.125C126.352 28.125 127.011 27.9148 127.533 27.4943C128.056 27.0739 128.442 26.5142 128.692 25.8153C128.948 25.1165 129.076 24.3466 129.076 23.5057C129.076 22.6705 128.948 21.9034 128.692 21.2045C128.442 20.5 128.056 19.9347 127.533 19.5085C127.011 19.0824 126.352 18.8693 125.556 18.8693C124.755 18.8693 124.09 19.0824 123.562 19.5085C123.039 19.9347 122.65 20.5 122.394 21.2045C122.144 21.9034 122.019 22.6705 122.019 23.5057C122.019 24.3466 122.144 25.1165 122.394 25.8153C122.65 26.5142 123.039 27.0739 123.562 27.4943C124.09 27.9148 124.755 28.125 125.556 28.125ZM140.605 16.9091V18.9545H133.455V16.9091H140.605ZM135.372 13.7727H137.92V26.1562C137.92 26.6506 137.994 27.0227 138.142 27.2727C138.29 27.517 138.48 27.6847 138.713 27.7756C138.952 27.8608 139.21 27.9034 139.489 27.9034C139.693 27.9034 139.872 27.8892 140.026 27.8608C140.179 27.8324 140.298 27.8097 140.384 27.7926L140.844 29.8977C140.696 29.9545 140.486 30.0114 140.213 30.0682C139.94 30.1307 139.599 30.1648 139.19 30.1705C138.52 30.1818 137.895 30.0625 137.315 29.8125C136.736 29.5625 136.267 29.1761 135.909 28.6534C135.551 28.1307 135.372 27.4744 135.372 26.6847V13.7727Z" fill="white"/>
<defs>
<clipPath id="clip0_82_1091">
<rect width="32" height="32" fill="white"/>
</clipPath>
<clipPath id="clip1_82_1091">
<rect width="19.7143" height="19.7143" fill="white" transform="translate(6.46436 44.1428)"/>
</clipPath>
<clipPath id="clip2_82_1091">
<rect width="19.7143" height="19.7143" fill="white" transform="translate(34.8037 44.1428)"/>
</clipPath>
<clipPath id="clip3_82_1091">
<rect width="19.7143" height="19.7143" fill="white" transform="translate(63.1428 44.1428)"/>
</clipPath>
<clipPath id="clip4_82_1091">
<rect width="19.7143" height="19.7143" fill="white" transform="translate(91.4822 44.1428)"/>
</clipPath>
<clipPath id="clip5_82_1091">
<rect width="19.7143" height="19.7143" fill="white" transform="translate(119.821 44.1428)"/>
</clipPath>
</defs>
</svg>
