<svg width="80" height="22" viewBox="0 0 80 22" fill="none" xmlns="http://www.w3.org/2000/svg">
<rect width="80" height="22" rx="10" fill="#F0EFEF"/>
<path d="M12.3707 5.36364L15.8253 15.1591H15.9616L19.4162 5.36364H20.8935L16.6207 17H15.1662L10.8935 5.36364H12.3707ZM22.5241 17V8.27273H23.8651V17H22.5241ZM23.206 6.81818C22.9446 6.81818 22.7192 6.72917 22.5298 6.55114C22.3442 6.37311 22.2514 6.15909 22.2514 5.90909C22.2514 5.65909 22.3442 5.44508 22.5298 5.26705C22.7192 5.08902 22.9446 5 23.206 5C23.4673 5 23.6908 5.08902 23.8764 5.26705C24.0658 5.44508 24.1605 5.65909 24.1605 5.90909C24.1605 6.15909 24.0658 6.37311 23.8764 6.55114C23.6908 6.72917 23.4673 6.81818 23.206 6.81818ZM29.9801 17.1818C29.1392 17.1818 28.4138 16.9962 27.804 16.625C27.1979 16.25 26.7301 15.7273 26.4006 15.0568C26.0748 14.3826 25.9119 13.5985 25.9119 12.7045C25.9119 11.8106 26.0748 11.0227 26.4006 10.3409C26.7301 9.6553 27.1884 9.12121 27.7756 8.73864C28.3665 8.35227 29.0559 8.15909 29.8438 8.15909C30.2983 8.15909 30.7472 8.23485 31.1903 8.38636C31.6335 8.53788 32.0369 8.78409 32.4006 9.125C32.7642 9.46212 33.054 9.90909 33.2699 10.4659C33.4858 11.0227 33.5938 11.7083 33.5938 12.5227V13.0909H26.8665V11.9318H32.2301C32.2301 11.4394 32.1316 11 31.9347 10.6136C31.7415 10.2273 31.465 9.92235 31.1051 9.69886C30.7491 9.47538 30.3286 9.36364 29.8438 9.36364C29.3097 9.36364 28.8475 9.49621 28.4574 9.76136C28.071 10.0227 27.7737 10.3636 27.5653 10.7841C27.357 11.2045 27.2528 11.6553 27.2528 12.1364V12.9091C27.2528 13.5682 27.3665 14.1269 27.5938 14.5852C27.8248 15.0398 28.1449 15.3864 28.554 15.625C28.9631 15.8598 29.4384 15.9773 29.9801 15.9773C30.3324 15.9773 30.6506 15.928 30.9347 15.8295C31.2225 15.7273 31.4706 15.5758 31.679 15.375C31.8873 15.1705 32.0483 14.9167 32.1619 14.6136L33.4574 14.9773C33.321 15.4167 33.0919 15.803 32.7699 16.1364C32.4479 16.4659 32.0502 16.7235 31.5767 16.9091C31.1032 17.0909 30.571 17.1818 29.9801 17.1818ZM37.6108 17L34.9517 8.27273H36.3608L38.2472 14.9545H38.3381L40.2017 8.27273H41.6335L43.4744 14.9318H43.5653L45.4517 8.27273H46.8608L44.2017 17H42.8835L40.9744 10.2955H40.8381L38.929 17H37.6108ZM55.7017 17.2045C55.1487 17.2045 54.6468 17.1004 54.196 16.892C53.7453 16.6799 53.3873 16.375 53.1222 15.9773C52.857 15.5758 52.7244 15.0909 52.7244 14.5227C52.7244 14.0227 52.8229 13.6174 53.0199 13.3068C53.2169 12.9924 53.4801 12.7462 53.8097 12.5682C54.1392 12.3902 54.5028 12.2576 54.9006 12.1705C55.3021 12.0795 55.7055 12.0076 56.1108 11.9545C56.6411 11.8864 57.071 11.8352 57.4006 11.8011C57.7339 11.7633 57.9763 11.7008 58.1278 11.6136C58.2831 11.5265 58.3608 11.375 58.3608 11.1591V11.1136C58.3608 10.553 58.2074 10.1174 57.9006 9.80682C57.5975 9.49621 57.1373 9.34091 56.5199 9.34091C55.8797 9.34091 55.3778 9.48106 55.0142 9.76136C54.6506 10.0417 54.3949 10.3409 54.2472 10.6591L52.9744 10.2045C53.2017 9.67424 53.5047 9.26136 53.8835 8.96591C54.2661 8.66667 54.6828 8.45833 55.1335 8.34091C55.5881 8.2197 56.035 8.15909 56.4744 8.15909C56.7547 8.15909 57.0767 8.19318 57.4403 8.26136C57.8078 8.32576 58.1619 8.46023 58.5028 8.66477C58.8475 8.86932 59.1335 9.17803 59.3608 9.59091C59.5881 10.0038 59.7017 10.5568 59.7017 11.25V17H58.3608V15.8182H58.2926C58.2017 16.0076 58.0502 16.2102 57.8381 16.4261C57.6259 16.642 57.3438 16.8258 56.9915 16.9773C56.6392 17.1288 56.2093 17.2045 55.7017 17.2045ZM55.9062 16C56.4366 16 56.8835 15.8958 57.2472 15.6875C57.6146 15.4792 57.8911 15.2102 58.0767 14.8807C58.2661 14.5511 58.3608 14.2045 58.3608 13.8409V12.6136C58.304 12.6818 58.179 12.7443 57.9858 12.8011C57.7964 12.8542 57.5767 12.9015 57.3267 12.9432C57.0805 12.9811 56.84 13.0152 56.6051 13.0455C56.3741 13.072 56.1866 13.0947 56.0426 13.1136C55.6941 13.1591 55.3684 13.233 55.0653 13.3352C54.7661 13.4337 54.5237 13.5833 54.3381 13.7841C54.1563 13.9811 54.0653 14.25 54.0653 14.5909C54.0653 15.0568 54.2377 15.4091 54.5824 15.6477C54.9309 15.8826 55.3722 16 55.9062 16ZM63.4901 5.36364V17H62.1491V5.36364H63.4901ZM67.2869 5.36364V17H65.946V5.36364H67.2869Z" fill="#1B203D"/>
</svg>
