<svg width="81" height="22" viewBox="0 0 81 22" fill="none" xmlns="http://www.w3.org/2000/svg">
<path d="M4.82155 1.87202C4.89773 1.80672 4.97392 1.74141 5.02834 1.69788C6.72622 0.598611 8.70707 0 10.8838 0C12.93 0 14.8456 0.544192 16.4781 1.5455C16.5979 1.63258 16.9135 1.83937 17.0876 2.04616C15.5095 0.304747 10.8838 4.02702 10.8838 4.02702C9.25127 2.79715 7.80372 1.95909 6.70445 1.63258C5.77932 1.40401 5.14806 1.63258 4.8542 1.85025M18.8726 3.49371C18.8182 3.43929 18.7637 3.38487 18.7202 3.33045C18.3284 2.8951 17.8277 2.78626 17.4141 2.81891C16.9897 2.94952 15.1285 3.61343 12.8429 5.77932C12.8429 5.77932 15.4224 8.2826 17.0006 10.8403C18.5787 13.398 19.5147 15.4115 18.9379 18.2087C20.6793 16.2713 21.7677 13.7027 21.7677 10.8838C21.7677 8.03227 20.6793 5.44192 18.8726 3.49371ZM14.9435 11.9287C14.2361 11.145 13.2021 10.024 11.8198 8.65265C11.526 8.35879 11.2104 8.05404 10.8838 7.72752C10.8838 7.72752 10.3723 8.22818 9.71927 8.89209C8.88122 9.73015 7.80372 10.8294 7.19422 11.4716C6.12761 12.6144 3.05837 16.206 2.88422 18.2195C2.88422 18.2195 2.17678 16.6305 3.70051 12.9409C4.68006 10.5356 7.61869 6.92212 8.87033 5.74667C8.87033 5.74667 7.7493 4.50591 6.3344 3.64608L6.27998 3.61343C5.5943 3.21073 4.8542 2.8951 4.13587 2.85156C3.40665 2.90598 2.94953 3.43929 2.94953 3.43929C1.0517 5.45306 -0.00362944 8.1167 9.37887e-06 10.8838C9.37887e-06 13.7704 1.1467 16.5388 3.18781 18.5799C4.19847 19.5905 5.39829 20.3922 6.71878 20.9392C8.03927 21.4862 9.45456 21.7677 10.8838 21.7677C14.0728 21.7677 16.9461 20.3963 18.9379 18.2087C18.9379 18.2087 18.7093 16.7611 17.24 14.6932C16.9026 14.2252 15.6401 12.7232 14.9435 11.9287Z" fill="#1B203D"/>
<path d="M25.3088 4.66859L28.7458 10.2147H28.85L32.287 4.66859H34.1877L29.9956 11.3343L34.1877 18H32.287L28.85 12.5581H28.7458L25.3088 18H23.408L27.7043 11.3343L23.408 4.66859H25.3088ZM36.2887 18V4.66859H37.8249V9.58975H37.9551C38.0679 9.41617 38.2241 9.19485 38.4238 8.92579C38.6277 8.65239 38.9185 8.40937 39.296 8.19673C39.6779 7.97975 40.1943 7.87126 40.8453 7.87126C41.6872 7.87126 42.4293 8.08173 43.0715 8.50267C43.7138 8.92362 44.215 9.52032 44.5752 10.2928C44.9354 11.0652 45.1155 11.9766 45.1155 13.0268C45.1155 14.0856 44.9354 15.0035 44.5752 15.7803C44.215 16.5527 43.716 17.1516 43.078 17.5769C42.4401 17.9978 41.7045 18.2083 40.8713 18.2083C40.2291 18.2083 39.7148 18.102 39.3286 17.8893C38.9424 17.6723 38.6451 17.4272 38.4368 17.1538C38.2285 16.876 38.0679 16.646 37.9551 16.4638H37.7728V18H36.2887ZM37.7989 13.0007C37.7989 13.7558 37.9095 14.422 38.1308 14.9991C38.3522 15.572 38.6755 16.0211 39.1008 16.3466C39.526 16.6677 40.0468 16.8283 40.663 16.8283C41.3053 16.8283 41.8412 16.659 42.2709 16.3205C42.7048 15.9777 43.0303 15.5177 43.2473 14.9405C43.4686 14.359 43.5793 13.7124 43.5793 13.0007C43.5793 12.2977 43.4708 11.6641 43.2538 11.1C43.0412 10.5315 42.7179 10.0823 42.2839 9.75249C41.8543 9.41834 41.314 9.25126 40.663 9.25126C40.0381 9.25126 39.513 9.40966 39.0877 9.72645C38.6625 10.0389 38.3413 10.4772 38.1243 11.0414C37.9074 11.6012 37.7989 12.2543 37.7989 13.0007ZM51.5273 18.2083C50.6247 18.2083 49.8327 17.9935 49.1514 17.5639C48.4744 17.1342 47.945 16.5332 47.5631 15.7607C47.1855 14.9883 46.9967 14.0856 46.9967 13.0528C46.9967 12.0113 47.1855 11.1021 47.5631 10.3253C47.945 9.54853 48.4744 8.94532 49.1514 8.51569C49.8327 8.08607 50.6247 7.87126 51.5273 7.87126C52.43 7.87126 53.2198 8.08607 53.8968 8.51569C54.5781 8.94532 55.1075 9.54853 55.4851 10.3253C55.867 11.1021 56.0579 12.0113 56.0579 13.0528C56.0579 14.0856 55.867 14.9883 55.4851 15.7607C55.1075 16.5332 54.5781 17.1342 53.8968 17.5639C53.2198 17.9935 52.43 18.2083 51.5273 18.2083ZM51.5273 16.8283C52.213 16.8283 52.7772 16.6525 53.2198 16.301C53.6624 15.9495 53.9901 15.4873 54.2027 14.9145C54.4154 14.3417 54.5217 13.7211 54.5217 13.0528C54.5217 12.3845 54.4154 11.7617 54.2027 11.1846C53.9901 10.6074 53.6624 10.1409 53.2198 9.78504C52.7772 9.42919 52.213 9.25126 51.5273 9.25126C50.8417 9.25126 50.2775 9.42919 49.8349 9.78504C49.3922 10.1409 49.0646 10.6074 48.8519 11.1846C48.6393 11.7617 48.533 12.3845 48.533 13.0528C48.533 13.7211 48.6393 14.3417 48.8519 14.9145C49.0646 15.4873 49.3922 15.9495 49.8349 16.301C50.2775 16.6525 50.8417 16.8283 51.5273 16.8283ZM59.1369 8.00144L61.5324 12.0894L63.9279 8.00144H65.6985L62.4698 13.0007L65.6985 18H63.9279L61.5324 14.1203L59.1369 18H57.3663L60.543 13.0007L57.3663 8.00144H59.1369Z" fill="black"/>
<path d="M71.0314 10.311L76.1869 15.4665M80.5323 10.311L75.3768 15.4665" stroke="#1B203D" stroke-width="1.14567"/>
</svg>
