<svg width="32" height="32" viewBox="0 0 32 32" fill="none" xmlns="http://www.w3.org/2000/svg">
<path d="M8.5733 4.96002C8.66664 4.88002 8.75997 4.80002 8.82664 4.74669C10.9066 3.40002 13.3333 2.66669 16 2.66669C18.5066 2.66669 20.8533 3.33335 22.8533 4.56002C23 4.66669 23.3866 4.92002 23.6 5.17335C21.6666 3.04002 16 7.60002 16 7.60002C14 6.09335 12.2266 5.06669 10.88 4.66669C9.74664 4.38669 8.9733 4.66669 8.6133 4.93335M25.7866 6.94669C25.72 6.88002 25.6533 6.81335 25.6 6.74669C25.12 6.21335 24.5066 6.08002 24 6.12002C23.48 6.28002 21.2 7.09335 18.4 9.74669C18.4 9.74669 21.56 12.8134 23.4933 15.9467C25.4266 19.08 26.5733 21.5467 25.8666 24.9734C28 22.6 29.3333 19.4534 29.3333 16C29.3333 12.5067 28 9.33335 25.7866 6.94669ZM20.9733 17.28C20.1066 16.32 18.84 14.9467 17.1466 13.2667C16.7866 12.9067 16.4 12.5334 16 12.1334C16 12.1334 15.3733 12.7467 14.5733 13.56C13.5466 14.5867 12.2266 15.9334 11.48 16.72C10.1733 18.12 6.4133 22.52 6.19997 24.9867C6.19997 24.9867 5.3333 23.04 7.19997 18.52C8.39997 15.5734 12 11.1467 13.5333 9.70669C13.5333 9.70669 12.16 8.18669 10.4266 7.13335L10.36 7.09335C9.51997 6.60002 8.6133 6.21335 7.7333 6.16002C6.83997 6.22669 6.27997 6.88002 6.27997 6.88002C3.95502 9.34701 2.66218 12.6101 2.66664 16C2.66664 19.5362 4.0714 22.9276 6.57188 25.4281C7.80999 26.6662 9.27985 27.6484 10.8975 28.3184C12.5152 28.9885 14.249 29.3334 16 29.3334C19.9066 29.3334 23.4266 27.6534 25.8666 24.9734C25.8666 24.9734 25.5866 23.2 23.7866 20.6667C23.3733 20.0934 21.8266 18.2534 20.9733 17.28Z" fill="#1B203D"/>
</svg>
